<svg xmlns="http://www.w3.org/2000/svg" width="456.847" height="132.554" viewBox="0 0 342.635 99.415" xml:space="preserve" color-interpolation-filters="sRGB" style="fill:none;fill-rule:evenodd;font-size:12px;overflow:visible;stroke-linecap:square;stroke-miterlimit:3"><style>.st1{fill:#fff;stroke:#000;stroke-linecap:round;stroke-linejoin:round;stroke-width:.24}.st2{fill:#000;font-family:宋体;font-size:.666664em}.st3{font-size:1em}.st4{stroke:#000;stroke-linecap:round;stroke-linejoin:round;stroke-width:.75}</style><g id="shape1-1"><path d="M14.17 99.42h42.52a14.173 14.173-180 0 0 0-28.35H14.17a14.173 14.173-180 1 0 0 28.35z" class="st1" transform="translate(.12 -35.926)"/><text x="19.43" y="87.64" class="st2" transform="translate(.12 -35.926)">按键点击</text></g><g id="shape3-4"><path d="M0 78.16 35.43 56.9l35.44 21.26-35.44 21.26L0 78.16z" class="st1" transform="translate(186.61 -28.84)"/><text x="27.43" y="80.56" class="st2" transform="translate(186.61 -28.84)">判断</text></g><g id="shape4-7"><path d="M14.17 99.42h42.52a14.173 14.173-180 0 0 0-28.35H14.17a14.173 14.173-180 1 0 0 28.35z" class="st1" transform="translate(271.649 -35.926)"/><text x="19.43" y="87.64" class="st2" transform="translate(271.649 -35.926)">执行操作</text></g><g id="shape2-10"><path class="st1" d="M0 70.36h70.866v29.055H0z" transform="translate(105.3 -70.24)"/><text x="19.43" y="82.49" class="st2" transform="translate(105.3 -70.24)">触发事件 <tspan x="3.43" dy="1.2em" class="st3">（</tspan>延时卡片结束）</text></g><g id="shape5-14"><path class="st1" d="M0 70.36h70.866v29.055H0z" transform="translate(105.3 -.12)"/><text x="19.43" y="82.49" class="st2" transform="translate(105.3 -.12)">状态条件 <tspan x="11.43" dy="1.2em" class="st3">（</tspan>按下次数）</text></g><path d="M0 99.42h10.63V64.75h23.68" class="st4" transform="translate(70.986 -50.1)" id="shape8-18"/><path d="M0 99.42h10.63v35.45h23.68" class="st4" transform="translate(70.986 -50.1)" id="shape9-21"/><path d="M0 99.42h45.88v-14.2" class="st4" transform="translate(176.166 -14.648)" id="shape10-24"/><path d="M0 99.8h45.88v13.41" class="st4" transform="translate(176.166 -85.15)" id="shape11-27"/><path d="M0 92.33h14.17" class="st4" transform="translate(257.476 -43.013)" id="shape12-30"/></svg>