<svg width="378" height="276" viewBox="0 0 378 276" fill="none" xmlns="http://www.w3.org/2000/svg"><path d="M30.703 88.144c-.691-.195-1.213-.517-1.564-.966-.348-.446-.522-1.035-.522-1.77v-1.166c0-.949-.414-1.424-1.242-1.424v-.85c.828 0 1.242-.472 1.242-1.417v-1.219c.008-.715.182-1.291.522-1.728.343-.442.865-.762 1.564-.961l.223.673c-.817.262-1.225.944-1.225 2.045v1.184c0 .887-.326 1.504-.978 1.852.652.351.978.974.978 1.869v1.207c.012 1.074.42 1.74 1.225 1.998l-.223.673zm18.762 16.745.62.422a2.764 2.764 0 0 0-.562 1.605v.797h-1.078v-.68c0-.398.094-.793.282-1.183.191-.391.437-.711.738-.961zm1.845 0 .622.422a2.764 2.764 0 0 0-.563 1.605v.797h-1.078v-.68c0-.398.094-.793.281-1.183.192-.391.438-.711.738-.961zM54.076 114h-1.084v-6.34h1.084V114zm-1.172-8.021c0-.176.053-.325.158-.446.11-.121.27-.181.481-.181.21 0 .371.06.48.181.11.121.164.27.164.446a.619.619 0 0 1-.164.439c-.109.117-.27.176-.48.176-.211 0-.371-.059-.48-.176a.632.632 0 0 1-.159-.439zm2.649 4.798c0-.972.23-1.754.691-2.343.461-.594 1.065-.891 1.81-.891.743 0 1.33.254 1.764.762V105h1.084v9h-.996l-.053-.68c-.433.532-1.037.797-1.81.797-.734 0-1.334-.301-1.799-.902-.46-.602-.691-1.387-.691-2.356v-.082zm1.084.123c0 .719.148 1.282.445 1.688.297.406.707.609 1.23.609.688 0 1.19-.308 1.506-.926v-2.912c-.324-.597-.822-.896-1.494-.896-.531 0-.945.205-1.242.615-.297.41-.445 1.018-.445 1.822zm6.1-3.029-.616-.422c.363-.508.55-1.043.563-1.605V105h1.072v.762a2.71 2.71 0 0 1-.293 1.172c-.188.386-.43.699-.727.937zm1.798 0-.615-.422c.363-.508.55-1.043.562-1.605V105h1.073v.762a2.71 2.71 0 0 1-.293 1.172c-.188.386-.43.699-.727.937zm11.238 5.561c0-.188.055-.344.165-.469.113-.125.28-.188.503-.188.223 0 .391.063.504.188a.658.658 0 0 1 .176.469.62.62 0 0 1-.176.451c-.113.121-.28.181-.504.181-.222 0-.39-.06-.504-.181a.649.649 0 0 1-.164-.451zm.006-5.174c0-.188.055-.344.164-.469.114-.125.282-.187.504-.187.223 0 .39.062.504.187a.658.658 0 0 1 .176.469c0 .18-.059.33-.176.451-.113.121-.281.182-.504.182-.222 0-.39-.061-.504-.182a.647.647 0 0 1-.164-.451zm9.698-3.369.62.422a2.762 2.762 0 0 0-.562 1.605v.797h-1.078v-.68c0-.398.094-.793.281-1.183.192-.391.438-.711.739-.961zm1.845 0 .621.422a2.762 2.762 0 0 0-.562 1.605v.797h-1.078v-.68c0-.398.094-.793.281-1.183a2.87 2.87 0 0 1 .738-.961zm5.21 9.111c-.063-.125-.114-.348-.153-.668-.504.523-1.106.785-1.805.785-.625 0-1.138-.176-1.54-.527a1.73 1.73 0 0 1-.599-1.348c0-.66.25-1.172.75-1.535.504-.367 1.212-.551 2.122-.551h1.054v-.498c0-.379-.113-.679-.34-.902-.226-.227-.56-.34-1.002-.34-.386 0-.71.098-.972.293-.262.195-.393.432-.393.709h-1.09c0-.316.112-.621.334-.914a2.32 2.32 0 0 1 .915-.703c.386-.172.81-.258 1.271-.258.73 0 1.303.184 1.717.551.414.363.629.865.644 1.506v2.918c0 .582.075 1.044.223 1.388V114h-1.137zm-1.8-.826c.34 0 .662-.088.967-.264a1.59 1.59 0 0 0 .662-.685v-1.301h-.85c-1.327 0-1.992.388-1.992 1.166 0 .34.114.605.34.797.227.191.518.287.873.287zm9.78-2.274c0 .969-.223 1.748-.668 2.338-.446.586-1.043.879-1.793.879-.801 0-1.42-.283-1.858-.849l-.052.732h-.997v-9h1.084v3.357c.438-.543 1.041-.814 1.811-.814s1.373.291 1.81.873c.442.582.663 1.379.663 2.391v.093zm-1.084-.123c0-.738-.143-1.308-.428-1.711-.285-.402-.695-.603-1.23-.603-.715 0-1.229.332-1.541.996v2.742c.332.664.85.996 1.552.996.52 0 .924-.201 1.213-.603.29-.403.434-1.008.434-1.817zm8.9.516c-.105.902-.439 1.6-1.002 2.092-.558.488-1.303.732-2.232.732-1.008 0-1.817-.361-2.426-1.084-.606-.722-.908-1.689-.908-2.9v-.821c0-.792.14-1.49.422-2.091.285-.602.687-1.063 1.207-1.383.519-.324 1.121-.486 1.804-.486.907 0 1.633.253 2.18.761.547.504.865 1.203.955 2.098h-1.131c-.097-.68-.31-1.172-.638-1.477-.325-.304-.78-.457-1.366-.457-.718 0-1.283.266-1.693.797-.406.531-.609 1.287-.609 2.268v.826c0 .926.193 1.662.58 2.209.386.547.927.82 1.623.82.625 0 1.103-.14 1.435-.422.336-.285.559-.779.668-1.482h1.131zm1.108-.516c0-.972.23-1.754.691-2.343.461-.594 1.064-.891 1.811-.891.742 0 1.33.254 1.763.762V105h1.084v9h-.996l-.053-.68c-.433.532-1.037.797-1.81.797-.735 0-1.334-.301-1.799-.902-.461-.602-.691-1.387-.691-2.356v-.082zm1.084.123c0 .719.148 1.282.445 1.688.297.406.707.609 1.23.609.688 0 1.19-.308 1.506-.926v-2.912c-.324-.597-.822-.896-1.494-.896-.531 0-.945.205-1.242.615-.297.41-.445 1.018-.445 1.822zm9.404 3.1h-1.09v-7.225l-2.186.803v-.984l3.106-1.166h.17V114zm3.433-6.129-.615-.422c.363-.508.551-1.043.563-1.605V105h1.072v.762c-.004.39-.102.781-.293 1.172-.188.386-.43.699-.727.937zm1.799 0-.615-.422c.363-.508.551-1.043.563-1.605V105h1.072v.762c-.004.39-.102.781-.293 1.172-.188.386-.43.699-.727.937zm2.309 7.828-.615-.422c.367-.511.558-1.039.574-1.582v-.978h1.06v.849c0 .395-.097.789-.293 1.184a2.727 2.727 0 0 1-.726.949zm-78 45.19.62.422a2.764 2.764 0 0 0-.562 1.605v.797h-1.078v-.68c0-.398.094-.793.282-1.183.191-.391.437-.711.738-.961zm1.845 0 .622.422a2.764 2.764 0 0 0-.563 1.605v.797h-1.078v-.68c0-.398.094-.793.281-1.183.192-.391.438-.711.738-.961zm3.06 1.236v1.535h1.183v.838h-1.184v3.932c0 .254.053.445.158.574.106.125.285.187.54.187.124 0 .296-.023.515-.07V170a3.147 3.147 0 0 1-.832.117c-.484 0-.85-.146-1.096-.439-.246-.293-.369-.709-.369-1.248v-3.932h-1.154v-.838h1.154v-1.535h1.084zM58.001 170h-1.084v-6.34h1.084V170zm-1.172-8.021c0-.176.053-.325.158-.446.11-.121.27-.181.48-.181.212 0 .372.06.481.181.11.121.164.27.164.446a.619.619 0 0 1-.164.439c-.11.117-.27.176-.48.176-.211 0-.371-.059-.48-.176a.632.632 0 0 1-.159-.439zm4.383.146v1.535h1.184v.838h-1.184v3.932c0 .254.053.445.158.574.106.125.285.187.54.187.124 0 .296-.023.515-.07V170a3.147 3.147 0 0 1-.832.117c-.485 0-.85-.146-1.096-.439-.246-.293-.37-.709-.37-1.248v-3.932h-1.153v-.838h1.154v-1.535h1.084zM64.846 170h-1.084v-9h1.084v9zm4.37.117c-.859 0-1.558-.281-2.097-.844-.539-.566-.808-1.322-.808-2.267v-.199c0-.629.119-1.19.357-1.682a2.812 2.812 0 0 1 1.008-1.16 2.537 2.537 0 0 1 1.406-.422c.824 0 1.465.271 1.922.814.457.543.685 1.321.685 2.332v.452h-4.294c.015.625.197 1.13.544 1.517.352.383.797.574 1.336.574.383 0 .707-.078.973-.234.266-.156.498-.363.697-.621l.662.516c-.53.816-1.328 1.224-2.39 1.224zm-.134-5.683c-.438 0-.805.16-1.101.48-.297.316-.481.762-.551 1.336h3.175v-.082c-.03-.551-.18-.977-.445-1.277-.266-.305-.625-.457-1.078-.457zm3.932-.563-.616-.422c.364-.508.551-1.043.563-1.605V161h1.072v.762a2.71 2.71 0 0 1-.293 1.172 2.68 2.68 0 0 1-.726.937zm1.799 0-.616-.422c.364-.508.551-1.043.563-1.605V161h1.072v.762a2.71 2.71 0 0 1-.293 1.172 2.67 2.67 0 0 1-.727.937zm8.261 5.561c0-.188.055-.344.164-.469.114-.125.281-.188.504-.188.223 0 .39.063.504.188a.658.658 0 0 1 .176.469c0 .179-.059.33-.176.451-.113.121-.281.181-.504.181-.223 0-.39-.06-.504-.181a.649.649 0 0 1-.164-.451zm.006-5.174c0-.188.055-.344.164-.469.113-.125.281-.187.504-.187.223 0 .39.062.504.187a.659.659 0 0 1 .176.469c0 .18-.059.33-.176.451-.113.121-.281.182-.504.182-.223 0-.39-.061-.504-.182a.647.647 0 0 1-.164-.451zm9.697-3.369.621.422a2.764 2.764 0 0 0-.562 1.605v.797h-1.078v-.68c0-.398.094-.793.281-1.183.192-.391.438-.711.738-.961zm1.846 0 .621.422a2.764 2.764 0 0 0-.562 1.605v.797h-1.079v-.68c0-.398.094-.793.282-1.183.191-.391.437-.711.738-.961zm3.926 5.144-1.043 1.084V170H96.38v-8.531h1.125v4.219l3.791-4.219h1.359l-3.357 3.767L102.92 170h-1.348l-3.023-3.967zm8.959 3.34c-.422.496-1.041.744-1.858.744-.675 0-1.191-.195-1.546-.586-.352-.394-.53-.976-.534-1.746v-4.125h1.084v4.096c0 .961.391 1.441 1.172 1.441.828 0 1.379-.308 1.653-.926v-4.611h1.083V170h-1.031l-.023-.627zm3.732-5.713.035.797c.485-.609 1.118-.914 1.899-.914 1.34 0 2.015.756 2.027 2.268V170h-1.084v-4.195c-.004-.457-.109-.795-.316-1.014-.203-.219-.522-.328-.955-.328-.352 0-.66.094-.926.281a1.91 1.91 0 0 0-.621.738V170h-1.084v-6.34h1.025zm5.338 3.117c0-.988.229-1.773.686-2.355.457-.586 1.062-.879 1.816-.879.774 0 1.377.273 1.811.82l.052-.703h.991v6.188c0 .82-.245 1.466-.733 1.939-.484.473-1.137.709-1.957.709-.457 0-.904-.098-1.342-.293-.437-.195-.771-.463-1.002-.803l.563-.65c.465.574 1.033.861 1.705.861.527 0 .937-.148 1.23-.445.297-.297.446-.715.446-1.254v-.545c-.434.5-1.026.75-1.776.75-.742 0-1.343-.299-1.804-.896-.457-.598-.686-1.412-.686-2.444zm1.09.123c0 .715.146 1.278.439 1.688.293.406.704.609 1.231.609.683 0 1.185-.31 1.506-.931v-2.895c-.332-.605-.83-.908-1.494-.908-.528 0-.94.205-1.237.615-.297.41-.445 1.018-.445 1.822zm13.758-.668h-3.58V170h-1.125v-8.531h5.285v.926h-4.16v2.917h3.58v.92zm5.543 3.141c-.422.496-1.041.744-1.858.744-.675 0-1.191-.195-1.547-.586-.351-.394-.529-.976-.533-1.746v-4.125h1.084v4.096c0 .961.391 1.441 1.172 1.441.828 0 1.379-.308 1.652-.926v-4.611h1.084V170h-1.031l-.023-.627zm6.978-2.713V170h-1.125v-8.531h3.147c.933 0 1.664.238 2.191.715.531.476.797 1.107.797 1.892 0 .828-.26 1.467-.779 1.916-.516.446-1.256.668-2.221.668h-2.01zm0-.92h2.022c.601 0 1.062-.14 1.383-.422.32-.285.48-.695.48-1.23 0-.508-.16-.914-.48-1.219-.321-.305-.76-.463-1.319-.474h-2.086v3.345zm10.119 4.26c-.062-.125-.113-.348-.152-.668-.504.523-1.105.785-1.805.785-.625 0-1.138-.176-1.541-.527a1.73 1.73 0 0 1-.597-1.348c0-.66.25-1.172.75-1.535.504-.367 1.211-.551 2.121-.551h1.054v-.498c0-.379-.113-.679-.339-.902-.227-.227-.561-.34-1.002-.34-.387 0-.711.098-.973.293-.262.195-.393.432-.393.709H150.1c0-.316.111-.621.334-.914a2.31 2.31 0 0 1 .914-.703c.386-.172.81-.258 1.271-.258.731 0 1.303.184 1.717.551.414.363.629.865.644 1.506v2.918c0 .582.075 1.044.223 1.388V170h-1.137zm-1.798-.826a1.9 1.9 0 0 0 .966-.264 1.59 1.59 0 0 0 .662-.685v-1.301h-.849c-1.328 0-1.992.388-1.992 1.166 0 .34.113.605.34.797.226.191.517.287.873.287zm5.437-5.514.035.797c.485-.609 1.117-.914 1.899-.914 1.34 0 2.015.756 2.027 2.268V170h-1.084v-4.195c-.004-.457-.109-.795-.316-1.014-.204-.219-.522-.328-.955-.328-.352 0-.661.094-.926.281a1.91 1.91 0 0 0-.621.738V170h-1.084v-6.34h1.025zm5.332 3.117c0-.972.231-1.754.692-2.343.46-.594 1.064-.891 1.81-.891.742 0 1.33.254 1.764.762V161h1.084v9h-.996l-.053-.68c-.434.532-1.037.797-1.811.797-.734 0-1.334-.301-1.798-.902-.461-.602-.692-1.387-.692-2.356v-.082zm1.084.123c0 .719.149 1.282.445 1.688.297.406.707.609 1.231.609.687 0 1.189-.308 1.506-.926v-2.912c-.324-.597-.823-.896-1.494-.896-.532 0-.946.205-1.243.615-.296.41-.445 1.018-.445 1.822zm9.867 3.1c-.062-.125-.113-.348-.152-.668-.504.523-1.106.785-1.805.785-.625 0-1.138-.176-1.541-.527a1.73 1.73 0 0 1-.597-1.348c0-.66.25-1.172.75-1.535.503-.367 1.211-.551 2.121-.551h1.054v-.498c0-.379-.113-.679-.339-.902-.227-.227-.561-.34-1.002-.34-.387 0-.711.098-.973.293-.262.195-.393.432-.393.709h-1.09c0-.316.112-.621.334-.914a2.32 2.32 0 0 1 .915-.703c.386-.172.81-.258 1.271-.258.73 0 1.303.184 1.717.551.414.363.629.865.644 1.506v2.918c0 .582.075 1.044.223 1.388V170h-1.137zm-1.799-.826c.34 0 .663-.088.967-.264a1.59 1.59 0 0 0 .662-.685v-1.301h-.849c-1.328 0-1.992.388-1.992 1.166 0 .34.113.605.339.797.227.191.518.287.873.287zm4.161-5.303-.616-.422c.364-.508.551-1.043.563-1.605V161h1.072v.762c-.004.39-.101.781-.293 1.172a2.68 2.68 0 0 1-.726.937zm1.798 0-.615-.422c.363-.508.551-1.043.563-1.605V161h1.072v.762c-.004.39-.102.781-.293 1.172a2.67 2.67 0 0 1-.727.937zm-151.037 35.6c.793-.254 1.203-.901 1.23-1.94v-1.289c0-.902.354-1.517 1.061-1.846-.707-.32-1.06-.935-1.06-1.845v-1.19c0-1.101-.408-1.783-1.225-2.045l.223-.673c.691.195 1.21.513 1.558.955.348.437.524 1.017.528 1.74v1.23c0 .934.414 1.401 1.242 1.401v.849c-.828 0-1.242.475-1.242 1.424v1.184c0 .734-.178 1.322-.533 1.763-.352.442-.87.76-1.553.956l-.229-.674z" fill="#000"/><g filter="url(#a)"><path d="M223 214a1 1 0 0 0-1 1v9a1 1 0 0 0 2 0v-8h8a1 1 0 0 0 0-2h-9zm43.562 43.147-42.855-42.854-1.414 1.414 42.854 42.855 1.415-1.415z" fill="#3E57AF"/></g><g filter="url(#b)"><path stroke="#3E57AF" stroke-width="3" stroke-linejoin="round" d="M6 66h211v143H6z"/></g><path d="M270.156 272v-11.375h3.36c1.005 0 1.895.224 2.672.672a4.573 4.573 0 0 1 1.812 1.906c.427.823.641 1.766.641 2.828v.571c0 1.078-.217 2.026-.649 2.843a4.495 4.495 0 0 1-1.836 1.891c-.791.443-1.7.664-2.726.664h-3.274zm1.977-9.781v8.203h1.289c1.036 0 1.831-.323 2.383-.969.557-.651.841-1.583.851-2.797v-.633c0-1.234-.268-2.177-.804-2.828-.537-.651-1.316-.976-2.336-.976h-1.383zm7.937 5.476c0-.828.164-1.573.492-2.234.329-.667.79-1.177 1.383-1.531.594-.36 1.276-.539 2.047-.539 1.141 0 2.065.367 2.774 1.101.713.735 1.099 1.709 1.156 2.922l.008.445c0 .834-.162 1.579-.485 2.235a3.513 3.513 0 0 1-1.375 1.523c-.593.36-1.281.539-2.062.539-1.193 0-2.149-.396-2.867-1.187-.714-.797-1.071-1.857-1.071-3.18v-.094zm1.899.164c0 .87.179 1.552.539 2.047.359.49.859.735 1.5.735.64 0 1.138-.25 1.492-.75.359-.5.539-1.232.539-2.196 0-.854-.185-1.531-.555-2.031-.364-.5-.862-.75-1.492-.75-.62 0-1.112.247-1.476.742-.365.49-.547 1.224-.547 2.203zm11.039 2.782c.474 0 .867-.138 1.18-.414.312-.276.479-.618.5-1.024h1.789a2.809 2.809 0 0 1-.493 1.477 3.243 3.243 0 0 1-1.25 1.078 3.73 3.73 0 0 1-1.703.398c-1.182 0-2.12-.383-2.812-1.148-.693-.766-1.039-1.823-1.039-3.172v-.195c0-1.287.343-2.315 1.031-3.086.687-.776 1.625-1.164 2.812-1.164 1.006 0 1.823.294 2.454.882.635.584.968 1.352 1 2.305h-1.789c-.021-.484-.188-.883-.5-1.195-.308-.313-.701-.469-1.18-.469-.615 0-1.089.224-1.422.672-.333.443-.503 1.117-.508 2.023v.305c0 .917.164 1.602.492 2.055.334.448.813.672 1.438.672zm10.023.531c-.557.656-1.349.984-2.375.984-.916 0-1.612-.268-2.086-.804-.468-.537-.703-1.313-.703-2.329v-5.476h1.899V269c0 1.073.445 1.609 1.336 1.609.921 0 1.544-.33 1.867-.992v-6.07h1.898V272h-1.789l-.047-.828zm5.555-7.625.055.883c.593-.693 1.406-1.039 2.437-1.039 1.13 0 1.904.432 2.32 1.297.615-.865 1.48-1.297 2.594-1.297.932 0 1.625.257 2.078.773.459.516.693 1.276.703 2.281V272h-1.898v-5.5c0-.536-.117-.93-.352-1.18-.234-.25-.622-.375-1.164-.375-.432 0-.786.117-1.062.352a1.817 1.817 0 0 0-.57.906l.007 5.797h-1.898v-5.562c-.026-.995-.534-1.493-1.524-1.493-.76 0-1.299.31-1.617.93V272h-1.898v-8.453h1.789zm15.859 8.609c-1.203 0-2.179-.377-2.929-1.133-.745-.76-1.118-1.77-1.118-3.031v-.234c0-.844.162-1.597.485-2.258.328-.667.786-1.185 1.375-1.555a3.63 3.63 0 0 1 1.969-.554c1.151 0 2.039.367 2.664 1.101.63.735.945 1.774.945 3.117v.766h-5.524c.058.698.29 1.25.696 1.656.411.407.927.61 1.547.61.869 0 1.578-.352 2.125-1.055l1.023.976a3.434 3.434 0 0 1-1.359 1.18c-.563.276-1.196.414-1.899.414zm-.226-7.242c-.521 0-.943.182-1.266.547-.318.365-.521.872-.609 1.523h3.617v-.14c-.042-.636-.211-1.115-.508-1.438-.297-.328-.708-.492-1.234-.492zm6.859-1.367.055.976c.625-.755 1.445-1.132 2.461-1.132 1.76 0 2.656 1.007 2.687 3.023V272h-1.898v-5.477c0-.536-.117-.932-.352-1.187-.229-.26-.607-.391-1.133-.391-.765 0-1.336.347-1.71 1.039V272h-1.899v-8.453h1.789zm9.524-2.055v2.055h1.492v1.406h-1.492v4.719c0 .323.062.557.187.703.13.141.359.211.688.211.218 0 .44-.026.664-.078v1.469a4.71 4.71 0 0 1-1.25.179c-1.459 0-2.188-.804-2.188-2.414v-4.789h-1.391v-1.406h1.391v-2.055h1.899z" fill="#3E57AF"/><g filter="url(#c)"><path stroke="#4CD9F8" stroke-width="3" stroke-linejoin="round" d="M33 86h127v44H33z"/></g><g filter="url(#d)"><path d="M112.448 96.707a1 1 0 0 0 1.414 0l6.364-6.364a1 1 0 1 0-1.414-1.414l-5.657 5.657-5.657-5.657a1 1 0 1 0-1.414 1.414l6.364 6.364zm-.293-73.207V96h2V23.5h-2z" fill="#F8B34C"/></g><g filter="url(#e)"><path d="M55.448 96.707a1 1 0 0 0 1.414 0l6.364-6.364a1 1 0 0 0-1.414-1.414l-5.657 5.656-5.657-5.656a1 1 0 0 0-1.414 1.414l6.364 6.364zM55.155 51v45h2V51h-2z" fill="#EA2465"/></g><g filter="url(#f)"><path stroke="#EA2465" stroke-width="3" stroke-linejoin="round" d="M42 100h29v19H42z"/></g><path d="M16.133 38.773V43h-1.977V31.625h4.352c1.27 0 2.279.33 3.023.992.75.662 1.125 1.537 1.125 2.625 0 1.115-.367 1.982-1.101 2.602-.73.62-1.753.93-3.07.93h-2.352zm0-1.586h2.375c.703 0 1.24-.164 1.61-.492.369-.333.554-.812.554-1.437 0-.615-.188-1.104-.563-1.469-.375-.37-.89-.56-1.547-.57h-2.43v3.968zm12.5-.906a4.705 4.705 0 0 0-.774-.062c-.87 0-1.455.333-1.757 1V43h-1.899v-8.453h1.813l.047.945c.458-.734 1.093-1.101 1.906-1.101.27 0 .494.036.672.109l-.008 1.781zM31.852 43h-1.899v-8.453h1.899V43zm-2.016-10.648c0-.292.091-.534.273-.727.188-.193.453-.29.797-.29.344 0 .61.097.797.29a1 1 0 0 1 .281.727.99.99 0 0 1-.28.718c-.188.188-.454.282-.798.282-.343 0-.61-.094-.797-.282a1.005 1.005 0 0 1-.273-.718zm5.875 2.195.055.883c.593-.693 1.406-1.04 2.437-1.04 1.13 0 1.904.433 2.32 1.297.615-.864 1.48-1.296 2.594-1.296.933 0 1.625.257 2.078.773.459.516.693 1.276.703 2.281V43H44v-5.5c0-.536-.117-.93-.352-1.18-.234-.25-.622-.375-1.164-.375-.432 0-.786.117-1.062.352a1.82 1.82 0 0 0-.57.906L40.859 43h-1.898v-5.563c-.026-.994-.534-1.492-1.523-1.492-.76 0-1.3.31-1.618.93V43h-1.898v-8.453h1.789zM52.898 43c-.083-.161-.156-.425-.218-.79a2.955 2.955 0 0 1-2.22.946c-.848 0-1.54-.242-2.077-.726-.537-.485-.805-1.084-.805-1.797 0-.901.333-1.591 1-2.07.672-.485 1.63-.727 2.875-.727h1.164v-.555c0-.437-.122-.786-.367-1.047-.245-.265-.617-.398-1.117-.398-.433 0-.787.11-1.063.328a.993.993 0 0 0-.414.82h-1.898c0-.463.153-.895.46-1.297.308-.406.725-.723 1.25-.953a4.431 4.431 0 0 1 1.774-.343c.99 0 1.779.25 2.367.75.589.494.891 1.192.907 2.093v3.813c0 .76.106 1.367.32 1.82V43h-1.938zm-2.086-1.367c.376 0 .727-.091 1.055-.274.334-.182.584-.427.75-.734v-1.594h-1.023c-.703 0-1.232.123-1.586.367-.354.245-.531.592-.531 1.04 0 .364.12.656.359.874.245.214.57.32.977.32zM60.93 36.28a4.705 4.705 0 0 0-.774-.062c-.87 0-1.456.333-1.758 1V43H56.5v-8.453h1.813l.046.945c.459-.734 1.094-1.101 1.907-1.101.27 0 .494.036.672.109l-.008 1.781zm4.297 4 1.718-5.734h2.024l-3.36 9.734c-.515 1.422-1.39 2.133-2.625 2.133-.276 0-.58-.047-.914-.14v-1.47l.36.024c.479 0 .838-.088 1.078-.266.245-.171.437-.463.578-.874l.273-.727-2.968-8.414h2.047l1.789 5.734zM77.5 38.086l-1.29 1.367V43h-1.976V31.625h1.977v5.336l1.094-1.352 3.328-3.984h2.39l-4.226 5.04L83.266 43h-2.344L77.5 38.086zm10.164 5.07c-1.203 0-2.18-.377-2.93-1.133-.744-.76-1.117-1.77-1.117-3.03v-.235c0-.844.162-1.597.485-2.258a3.737 3.737 0 0 1 1.375-1.555 3.625 3.625 0 0 1 1.968-.554c1.151 0 2.04.367 2.664 1.101.63.735.946 1.774.946 3.117v.766H85.53c.057.698.29 1.25.696 1.656.411.407.927.61 1.546.61.87 0 1.579-.352 2.125-1.055l1.024.977a3.442 3.442 0 0 1-1.36 1.18c-.562.275-1.195.413-1.898.413zm-.227-7.242c-.52 0-.942.182-1.265.547-.318.364-.521.872-.61 1.523h3.618v-.14c-.042-.636-.211-1.115-.508-1.438-.297-.328-.709-.492-1.234-.492zm7.946 4.367 1.719-5.734h2.023l-3.36 9.734c-.515 1.422-1.39 2.133-2.624 2.133-.276 0-.581-.047-.914-.14v-1.47l.359.024c.48 0 .838-.088 1.078-.266.245-.171.438-.463.578-.874l.274-.727-2.97-8.414h2.048l1.789 5.734z" fill="#EA2465"/><path d="M277.133 110.773V115h-1.977v-11.375h4.352c1.271 0 2.278.331 3.023.992.75.662 1.125 1.537 1.125 2.625 0 1.115-.367 1.982-1.101 2.602-.729.62-1.753.929-3.071.929h-2.351zm0-1.585h2.375c.703 0 1.239-.165 1.609-.493.37-.333.555-.812.555-1.437 0-.615-.188-1.104-.563-1.469-.375-.37-.89-.56-1.547-.57h-2.429v3.969zm12.5-.907a4.776 4.776 0 0 0-.774-.062c-.869 0-1.455.333-1.757 1V115h-1.899v-8.453h1.813l.046.945c.459-.734 1.094-1.101 1.907-1.101.271 0 .495.036.672.109l-.008 1.781zm3.219 6.719h-1.899v-8.453h1.899V115zm-2.016-10.648c0-.292.091-.534.273-.727.188-.193.453-.289.797-.289.344 0 .61.096.797.289a.999.999 0 0 1 .281.727.986.986 0 0 1-.281.718c-.187.188-.453.282-.797.282-.344 0-.609-.094-.797-.282a1.004 1.004 0 0 1-.273-.718zm5.875 2.195.055.883c.593-.693 1.406-1.039 2.437-1.039 1.13 0 1.904.432 2.32 1.297.615-.865 1.48-1.297 2.594-1.297.932 0 1.625.257 2.078.773.459.516.693 1.276.703 2.281V115H305v-5.5c0-.536-.117-.93-.352-1.18-.234-.25-.622-.375-1.164-.375-.432 0-.786.117-1.062.352a1.817 1.817 0 0 0-.57.906l.007 5.797h-1.898v-5.562c-.026-.995-.534-1.493-1.523-1.493-.761 0-1.3.31-1.618.93V115h-1.898v-8.453h1.789zM313.898 115c-.083-.161-.156-.424-.218-.789a2.956 2.956 0 0 1-2.219.945c-.849 0-1.542-.242-2.078-.726-.537-.485-.805-1.084-.805-1.797 0-.901.333-1.591 1-2.071.672-.484 1.63-.726 2.875-.726h1.164v-.555c0-.437-.122-.786-.367-1.047-.245-.265-.617-.398-1.117-.398-.432 0-.787.109-1.063.328a.994.994 0 0 0-.414.82h-1.898c0-.463.153-.895.461-1.296.307-.407.724-.724 1.25-.954a4.432 4.432 0 0 1 1.773-.343c.99 0 1.779.25 2.367.75.589.494.891 1.192.907 2.093v3.813c0 .76.106 1.367.32 1.82V115h-1.938zm-2.086-1.367c.376 0 .727-.091 1.055-.274.334-.182.584-.427.75-.734v-1.594h-1.023c-.703 0-1.232.123-1.586.367-.354.245-.531.592-.531 1.04 0 .364.119.656.359.874.245.214.57.321.976.321zm10.118-5.352a4.776 4.776 0 0 0-.774-.062c-.87 0-1.455.333-1.758 1V115H317.5v-8.453h1.812l.047.945c.459-.734 1.094-1.101 1.907-1.101.27 0 .494.036.672.109l-.008 1.781zm4.297 4 1.718-5.734h2.024l-3.36 9.734c-.515 1.422-1.39 2.133-2.625 2.133-.276 0-.58-.047-.914-.141v-1.468l.36.023c.479 0 .838-.088 1.078-.266.245-.171.437-.463.578-.874l.273-.727-2.968-8.414h2.047l1.789 5.734zm15.562-2.101h-4.578V115h-1.977v-11.375h7.227v1.594h-5.25v3.383h4.578v1.578zm4.078 4.82h-1.898v-8.453h1.898V115zm-2.015-10.648c0-.292.091-.534.273-.727.187-.193.453-.289.797-.289.344 0 .609.096.797.289.187.193.281.435.281.727a.99.99 0 0 1-.281.718c-.188.188-.453.282-.797.282-.344 0-.61-.094-.797-.282a1.004 1.004 0 0 1-.273-.718zm7.812 10.804c-1.203 0-2.18-.377-2.93-1.133-.744-.76-1.117-1.77-1.117-3.031v-.234c0-.844.162-1.597.485-2.258.328-.667.786-1.185 1.375-1.555a3.627 3.627 0 0 1 1.968-.554c1.151 0 2.039.367 2.664 1.101.631.735.946 1.774.946 3.117v.766h-5.524c.058.698.289 1.25.696 1.656.411.407.927.61 1.546.61.87 0 1.579-.352 2.125-1.055l1.024.976a3.436 3.436 0 0 1-1.36 1.18c-.562.276-1.195.414-1.898.414zm-.226-7.242c-.521 0-.943.182-1.266.547-.318.365-.521.872-.61 1.523h3.618v-.14c-.042-.636-.211-1.115-.508-1.438-.297-.328-.708-.492-1.234-.492zm7.117 7.086h-1.899v-12h1.899v12zm1.718-4.289c0-1.302.303-2.346.907-3.133.604-.792 1.414-1.187 2.429-1.187.896 0 1.62.312 2.172.937V103h1.899v12h-1.719l-.094-.875c-.568.687-1.325 1.031-2.273 1.031-.99 0-1.792-.398-2.406-1.195-.61-.797-.915-1.88-.915-3.25zm1.899.164c0 .859.164 1.531.492 2.016.333.479.805.718 1.414.718.776 0 1.344-.346 1.703-1.039v-3.609c-.349-.677-.911-1.016-1.687-1.016-.615 0-1.089.245-1.422.735-.333.484-.5 1.216-.5 2.195z" fill="#4CD9F8"/><g filter="url(#g)"><path stroke="#F8B34C" stroke-width="3" stroke-linejoin="round" d="M82 100h53v19H82z"/></g><g filter="url(#h)"><path d="M167.293 108.293a.999.999 0 0 0 0 1.414l6.364 6.364a.999.999 0 1 0 1.414-1.414L169.414 109l5.657-5.657a.999.999 0 1 0-1.414-1.414l-6.364 6.364zM264 108h-96v2h96v-2z" fill="#4CD9F8"/></g><path d="M44.156 15V3.625h3.36c1.005 0 1.895.224 2.672.672A4.574 4.574 0 0 1 52 6.203c.427.823.64 1.766.64 2.828v.57c0 1.079-.215 2.027-.648 2.844a4.495 4.495 0 0 1-1.836 1.89c-.791.444-1.7.665-2.726.665h-3.274zm1.977-9.781v8.203h1.289c1.036 0 1.83-.323 2.383-.969.557-.65.84-1.583.851-2.797v-.633c0-1.234-.268-2.177-.804-2.828-.537-.65-1.316-.976-2.336-.976h-1.383zm7.937 5.476c0-.828.164-1.573.492-2.234.329-.667.79-1.177 1.383-1.531.594-.36 1.276-.54 2.047-.54 1.14 0 2.065.368 2.774 1.102.713.735 1.099 1.709 1.156 2.922l.008.445c0 .834-.162 1.579-.485 2.235a3.52 3.52 0 0 1-1.375 1.523c-.593.36-1.28.54-2.062.54-1.193 0-2.149-.397-2.867-1.188-.714-.797-1.07-1.857-1.07-3.18v-.094zm1.899.164c0 .87.18 1.553.539 2.047.36.49.86.735 1.5.735s1.138-.25 1.492-.75c.36-.5.54-1.232.54-2.196 0-.854-.186-1.53-.556-2.03-.364-.5-.862-.75-1.492-.75-.62 0-1.112.246-1.476.741-.365.49-.547 1.224-.547 2.203zm11.039 2.782c.474 0 .867-.138 1.18-.414a1.42 1.42 0 0 0 .5-1.024h1.789a2.81 2.81 0 0 1-.493 1.477 3.241 3.241 0 0 1-1.25 1.078 3.726 3.726 0 0 1-1.703.398c-1.182 0-2.12-.383-2.812-1.148-.693-.766-1.04-1.823-1.04-3.172v-.195c0-1.287.344-2.315 1.032-3.086.687-.776 1.625-1.164 2.812-1.164 1.006 0 1.823.294 2.454.882.635.584.968 1.352 1 2.305h-1.79c-.02-.484-.187-.883-.5-1.195-.307-.313-.7-.469-1.18-.469-.614 0-1.088.224-1.421.672-.333.443-.503 1.117-.508 2.023v.305c0 .917.164 1.602.492 2.055.334.448.813.672 1.438.672zm10.023.53c-.557.657-1.349.985-2.375.985-.916 0-1.612-.268-2.086-.804-.468-.537-.703-1.313-.703-2.329V6.547h1.899V12c0 1.073.445 1.61 1.336 1.61.921 0 1.544-.331 1.867-.993v-6.07h1.898V15h-1.789l-.047-.828zm5.555-7.624.055.883c.593-.693 1.406-1.04 2.437-1.04 1.13 0 1.904.433 2.32 1.298.615-.865 1.48-1.297 2.594-1.297.932 0 1.625.257 2.078.773.459.516.693 1.276.703 2.281V15h-1.898V9.5c0-.536-.117-.93-.352-1.18-.234-.25-.622-.375-1.164-.375-.432 0-.786.117-1.062.352a1.817 1.817 0 0 0-.57.906L87.734 15h-1.898V9.437c-.026-.994-.534-1.492-1.523-1.492-.76 0-1.3.31-1.618.93V15h-1.898V6.547h1.789zm15.86 8.61c-1.204 0-2.18-.378-2.93-1.134-.745-.76-1.118-1.77-1.118-3.03v-.235c0-.844.162-1.597.485-2.258a3.738 3.738 0 0 1 1.375-1.555 3.625 3.625 0 0 1 1.969-.554c1.15 0 2.039.367 2.664 1.101.63.735.945 1.774.945 3.117v.766h-5.523c.057.698.289 1.25.695 1.656.411.406.927.61 1.547.61.87 0 1.578-.352 2.125-1.055l1.023.976a3.441 3.441 0 0 1-1.359 1.18c-.563.276-1.196.414-1.899.414zm-.227-7.243c-.521 0-.943.182-1.266.547-.318.365-.52.872-.61 1.523h3.618v-.14c-.042-.636-.211-1.115-.508-1.438-.297-.328-.708-.492-1.234-.492zm6.859-1.367.055.976c.625-.755 1.445-1.132 2.461-1.132 1.76 0 2.656 1.007 2.687 3.023V15h-1.898V9.523c0-.536-.117-.932-.352-1.187-.229-.26-.607-.39-1.133-.39-.765 0-1.336.346-1.71 1.038V15h-1.899V6.547h1.789zm9.524-2.055v2.055h1.492v1.406h-1.492v4.719c0 .323.062.557.187.703.13.14.359.21.688.21.218 0 .44-.025.664-.077v1.469a4.68 4.68 0 0 1-1.25.18c-1.459 0-2.188-.805-2.188-2.415V7.953h-1.391V6.547h1.391V4.492h1.899zM123.805 15h-1.969V3.625h1.969V15zm1.89-4.29c0-1.301.302-2.345.907-3.132.604-.792 1.414-1.187 2.429-1.187.896 0 1.62.312 2.172.937V3h1.899v12h-1.719l-.094-.875c-.568.688-1.325 1.031-2.273 1.031-.99 0-1.792-.398-2.407-1.195-.609-.797-.914-1.88-.914-3.25zm1.899.165c0 .86.164 1.531.492 2.016.333.479.805.718 1.414.718.776 0 1.344-.346 1.703-1.039V8.96c-.349-.676-.911-1.015-1.687-1.015-.615 0-1.089.245-1.422.735-.334.484-.5 1.216-.5 2.195zm11.211 4.281c-1.203 0-2.18-.377-2.93-1.133-.745-.76-1.117-1.77-1.117-3.03v-.235c0-.844.161-1.597.484-2.258a3.74 3.74 0 0 1 1.375-1.555 3.627 3.627 0 0 1 1.969-.554c1.151 0 2.039.367 2.664 1.101.63.735.945 1.774.945 3.117v.766h-5.523c.057.698.289 1.25.695 1.656.412.406.927.61 1.547.61.87 0 1.578-.352 2.125-1.055l1.023.976a3.435 3.435 0 0 1-1.359 1.18c-.562.276-1.195.414-1.898.414zm-.227-7.242c-.521 0-.943.182-1.266.547-.317.365-.52.872-.609 1.523h3.617v-.14c-.041-.636-.211-1.115-.508-1.438-.296-.328-.708-.492-1.234-.492zm6.86-1.367.054.976c.625-.755 1.446-1.132 2.461-1.132 1.761 0 2.656 1.007 2.688 3.023V15h-1.899V9.523c0-.536-.117-.932-.351-1.187-.23-.26-.607-.39-1.133-.39-.766 0-1.336.346-1.711 1.038V15h-1.899V6.547h1.79zm9.523-2.055v2.055h1.492v1.406h-1.492v4.719c0 .323.062.557.187.703.131.14.36.21.688.21.219 0 .44-.025.664-.077v1.469c-.432.12-.849.18-1.25.18-1.458 0-2.188-.805-2.188-2.415V7.953h-1.39V6.547h1.39V4.492h1.899zM159.93 15h-1.899V6.547h1.899V15zm-2.016-10.648c0-.292.091-.534.274-.727.187-.193.453-.29.796-.29.344 0 .61.097.797.29a.998.998 0 0 1 .281.727.988.988 0 0 1-.281.718c-.187.188-.453.282-.797.282-.343 0-.609-.094-.796-.282a1.003 1.003 0 0 1-.274-.718zM162.508 15V7.953h-1.289V6.547h1.289v-.578c.005-.662.146-1.23.422-1.703a2.62 2.62 0 0 1 1.172-1.07c.505-.24 1.112-.36 1.82-.36.417 0 .815.044 1.195.133.386.088.784.2 1.195.336l-.289 1.57c-.718-.25-1.375-.375-1.968-.375-.578 0-.998.128-1.258.383-.261.25-.391.627-.391 1.133v.53h1.664v1.407h-1.664V15h-1.898zm6.703 0h-1.899V6.547h1.899V15zm5.828.156c-1.203 0-2.18-.377-2.93-1.133-.744-.76-1.117-1.77-1.117-3.03v-.235c0-.844.162-1.597.485-2.258.328-.667.786-1.185 1.375-1.555a3.62 3.62 0 0 1 1.968-.554c1.151 0 2.039.367 2.664 1.101.631.735.946 1.774.946 3.117v.766h-5.524c.058.698.289 1.25.696 1.656.411.406.927.61 1.546.61.87 0 1.579-.352 2.125-1.055l1.024.976a3.448 3.448 0 0 1-1.359 1.18c-.563.276-1.196.414-1.899.414zm-.227-7.242c-.52 0-.942.182-1.265.547-.318.365-.521.872-.609 1.523h3.617v-.14c-.042-.636-.211-1.115-.508-1.438-.297-.328-.708-.492-1.235-.492zm9.524.367a4.701 4.701 0 0 0-.774-.062c-.869 0-1.455.333-1.757 1V15h-1.899V6.547h1.813l.047.945c.458-.734 1.093-1.101 1.906-1.101.271 0 .495.036.672.109l-.008 1.781z" fill="#F8B34C"/><path d="M281.102 169.07c0-.5-.178-.885-.532-1.156-.349-.271-.981-.544-1.898-.82-.917-.276-1.646-.584-2.188-.922-1.036-.651-1.554-1.5-1.554-2.547 0-.917.372-1.672 1.117-2.266.75-.593 1.721-.89 2.914-.89.792 0 1.497.146 2.117.437a3.47 3.47 0 0 1 1.461 1.25 3.18 3.18 0 0 1 .531 1.789h-1.968c0-.593-.188-1.057-.563-1.39-.37-.339-.901-.508-1.594-.508-.646 0-1.148.138-1.507.414-.355.276-.532.661-.532 1.156 0 .417.193.766.578 1.047.386.276 1.021.547 1.907.813.885.26 1.596.559 2.132.898.537.333.93.719 1.18 1.156.25.433.375.94.375 1.524 0 .948-.364 1.703-1.094 2.265-.724.558-1.708.836-2.953.836-.823 0-1.58-.151-2.273-.453-.688-.307-1.224-.729-1.61-1.265-.38-.537-.57-1.162-.57-1.876h1.977c0 .646.213 1.146.64 1.5.427.355 1.039.532 1.836.532.688 0 1.203-.138 1.547-.414.349-.282.524-.651.524-1.11zm5.906-7.578v2.055h1.492v1.406h-1.492v4.719c0 .323.062.557.187.703.131.141.36.211.688.211.219 0 .44-.026.664-.078v1.469a4.704 4.704 0 0 1-1.25.179c-1.458 0-2.188-.804-2.188-2.414v-4.789h-1.39v-1.406h1.39v-2.055h1.899zm8 10.508c-.084-.161-.156-.424-.219-.789a2.956 2.956 0 0 1-2.219.945c-.849 0-1.541-.242-2.078-.726-.536-.485-.804-1.084-.804-1.797 0-.901.333-1.591 1-2.071.671-.484 1.63-.726 2.874-.726h1.165v-.555c0-.437-.123-.786-.368-1.047-.244-.265-.617-.398-1.117-.398-.432 0-.786.109-1.062.328a.994.994 0 0 0-.414.82h-1.899c0-.463.154-.895.461-1.296.307-.407.724-.724 1.25-.954a4.437 4.437 0 0 1 1.774-.343c.989 0 1.778.25 2.367.75.588.494.89 1.192.906 2.093v3.813c0 .76.107 1.367.32 1.82V172h-1.937zm-2.086-1.367c.375 0 .726-.091 1.055-.274.333-.182.583-.427.75-.734v-1.594h-1.024c-.703 0-1.232.123-1.586.367-.354.245-.531.592-.531 1.04 0 .364.12.656.359.874.245.214.571.321.977.321zm7.453-7.086.055.976c.625-.755 1.445-1.132 2.461-1.132 1.76 0 2.656 1.007 2.687 3.023V172h-1.898v-5.477c0-.536-.118-.932-.352-1.187-.229-.26-.607-.391-1.133-.391-.765 0-1.336.347-1.711 1.039V172h-1.898v-8.453h1.789zm6.789 4.164c0-1.302.302-2.346.906-3.133.604-.792 1.414-1.187 2.43-1.187.896 0 1.62.312 2.172.937V160h1.898v12h-1.718l-.094-.875c-.568.687-1.326 1.031-2.274 1.031-.989 0-1.791-.398-2.406-1.195-.609-.797-.914-1.88-.914-3.25zm1.898.164c0 .859.165 1.531.493 2.016.333.479.804.718 1.414.718.776 0 1.343-.346 1.703-1.039v-3.609c-.349-.677-.912-1.016-1.688-1.016-.614 0-1.088.245-1.422.735-.333.484-.5 1.216-.5 2.195zm12.54 4.125c-.084-.161-.157-.424-.219-.789a2.956 2.956 0 0 1-2.219.945c-.849 0-1.542-.242-2.078-.726-.537-.485-.805-1.084-.805-1.797 0-.901.334-1.591 1-2.071.672-.484 1.63-.726 2.875-.726h1.164v-.555c0-.437-.122-.786-.367-1.047-.245-.265-.617-.398-1.117-.398-.432 0-.787.109-1.063.328a.994.994 0 0 0-.414.82h-1.898c0-.463.154-.895.461-1.296.307-.407.724-.724 1.25-.954a4.432 4.432 0 0 1 1.773-.343c.99 0 1.779.25 2.367.75.589.494.891 1.192.907 2.093v3.813c0 .76.107 1.367.32 1.82V172h-1.937zm-2.086-1.367c.375 0 .726-.091 1.054-.274.334-.182.584-.427.75-.734v-1.594h-1.023c-.703 0-1.232.123-1.586.367-.354.245-.531.592-.531 1.04 0 .364.119.656.359.874.245.214.57.321.977.321zm10.117-5.352a4.776 4.776 0 0 0-.774-.062c-.869 0-1.455.333-1.757 1V172h-1.899v-8.453h1.813l.046.945c.459-.734 1.094-1.101 1.907-1.101.271 0 .495.036.672.109l-.008 1.781zm.687 2.43c0-1.302.302-2.346.907-3.133.604-.792 1.414-1.187 2.429-1.187.896 0 1.62.312 2.172.937V160h1.899v12h-1.719l-.094-.875c-.568.687-1.325 1.031-2.273 1.031-.99 0-1.792-.398-2.407-1.195-.609-.797-.914-1.88-.914-3.25zm1.899.164c0 .859.164 1.531.492 2.016.333.479.805.718 1.414.718.776 0 1.344-.346 1.703-1.039v-3.609c-.349-.677-.911-1.016-1.687-1.016-.615 0-1.089.245-1.422.735-.334.484-.5 1.216-.5 2.195zm18.211-.695h-4.578V172h-1.977v-11.375h7.227v1.594h-5.25v3.383h4.578v1.578zm4.078 4.82h-1.899v-8.453h1.899V172zm-2.016-10.648c0-.292.091-.534.274-.727.187-.193.453-.289.796-.289.344 0 .61.096.797.289a1 1 0 0 1 .282.727.986.986 0 0 1-.282.718c-.187.188-.453.282-.797.282-.343 0-.609-.094-.796-.282a1 1 0 0 1-.274-.718zm7.813 10.804c-1.203 0-2.18-.377-2.93-1.133-.745-.76-1.117-1.77-1.117-3.031v-.234c0-.844.161-1.597.484-2.258a3.74 3.74 0 0 1 1.375-1.555 3.633 3.633 0 0 1 1.969-.554c1.151 0 2.039.367 2.664 1.101.63.735.945 1.774.945 3.117v.766h-5.523c.057.698.289 1.25.695 1.656.412.407.927.61 1.547.61.87 0 1.578-.352 2.125-1.055l1.023.976a3.427 3.427 0 0 1-1.359 1.18c-.562.276-1.195.414-1.898.414zm-.227-7.242c-.521 0-.943.182-1.266.547-.317.365-.52.872-.609 1.523h3.617v-.14c-.041-.636-.211-1.115-.508-1.438-.296-.328-.708-.492-1.234-.492zm7.117 7.086h-1.898v-12h1.898v12zm1.719-4.289c0-1.302.302-2.346.906-3.133.604-.792 1.414-1.187 2.43-1.187.896 0 1.62.312 2.172.937V160h1.898v12h-1.718l-.094-.875c-.568.687-1.326 1.031-2.274 1.031-.989 0-1.791-.398-2.406-1.195-.609-.797-.914-1.88-.914-3.25zm1.898.164c0 .859.165 1.531.493 2.016.333.479.804.718 1.414.718.776 0 1.343-.346 1.703-1.039v-3.609c-.349-.677-.912-1.016-1.688-1.016-.614 0-1.088.245-1.422.735-.333.484-.5 1.216-.5 2.195z" fill="#3EAF7C"/><g filter="url(#i)"><path d="M201.293 165.293a.999.999 0 0 0 0 1.414l6.364 6.364a.999.999 0 1 0 1.414-1.414L203.414 166l5.657-5.657a.999.999 0 1 0-1.414-1.414l-6.364 6.364zM266 165h-64v2h64v-2z" fill="#3EAF7C"/></g><g filter="url(#j)"><path d="M36 142.5a1.5 1.5 0 0 0-1.5 1.5v45a1.5 1.5 0 0 0 1.5 1.5h158a1.5 1.5 0 0 0 1.5-1.5v-45a1.5 1.5 0 0 0-1.5-1.5H36z" stroke="#3EAF7C" stroke-width="3" stroke-linejoin="round"/></g><path d="M37.523 262.352h-4.406L32.195 265h-2.054l4.297-11.375h1.773L40.516 265h-2.063l-.93-2.648zm-3.851-1.594h3.297l-1.649-4.719-1.648 4.719zm10.195-6.266v2.055h1.492v1.406h-1.492v4.719c0 .323.063.557.188.703.13.141.36.211.687.211.219 0 .44-.026.664-.078v1.469a4.705 4.705 0 0 1-1.25.179c-1.458 0-2.187-.804-2.187-2.414v-4.789h-1.39v-1.406h1.39v-2.055h1.898zm5.328 0v2.055h1.492v1.406h-1.492v4.719c0 .323.063.557.188.703.13.141.36.211.687.211.22 0 .44-.026.664-.078v1.469a4.706 4.706 0 0 1-1.25.179c-1.458 0-2.187-.804-2.187-2.414v-4.789h-1.39v-1.406h1.39v-2.055h1.898zm7.375 3.789a4.772 4.772 0 0 0-.773-.062c-.87 0-1.456.333-1.758 1V265h-1.898v-8.453h1.812l.047.945c.458-.734 1.094-1.101 1.906-1.101.271 0 .495.036.672.109l-.008 1.781zM59.79 265h-1.9v-8.453h1.9V265zm-2.017-10.648c0-.292.092-.534.274-.727.187-.193.453-.289.797-.289.343 0 .61.096.797.289a1 1 0 0 1 .28.727.988.988 0 0 1-.28.718c-.188.188-.453.282-.797.282-.344 0-.61-.094-.797-.282a1.003 1.003 0 0 1-.274-.718zm11.508 6.507c0 1.313-.294 2.357-.883 3.133-.583.776-1.388 1.164-2.414 1.164-.99 0-1.76-.357-2.312-1.07l-.094.914H61.86v-12h1.899v4.359c.547-.645 1.284-.968 2.21-.968 1.032 0 1.842.382 2.43 1.148.589.766.883 1.836.883 3.211v.109zm-1.898-.164c0-.916-.162-1.604-.485-2.062-.322-.459-.791-.688-1.406-.688-.823 0-1.4.36-1.734 1.078v3.485c.338.734.922 1.101 1.75 1.101.594 0 1.052-.221 1.375-.664.323-.442.49-1.112.5-2.007v-.243zM76 264.172c-.557.656-1.349.984-2.375.984-.917 0-1.612-.268-2.086-.804-.469-.537-.703-1.313-.703-2.329v-5.476h1.898V262c0 1.073.446 1.609 1.336 1.609.922 0 1.545-.33 1.868-.992v-6.07h1.898V265h-1.79l-.046-.828zm6.148-9.68v2.055h1.493v1.406h-1.493v4.719c0 .323.063.557.188.703.13.141.36.211.687.211.22 0 .44-.026.665-.078v1.469a4.706 4.706 0 0 1-1.25.179c-1.459 0-2.188-.804-2.188-2.414v-4.789h-1.39v-1.406h1.39v-2.055h1.898zm6.672 10.664c-1.203 0-2.18-.377-2.93-1.133-.744-.76-1.117-1.77-1.117-3.031v-.234c0-.844.162-1.597.485-2.258a3.738 3.738 0 0 1 1.375-1.555 3.631 3.631 0 0 1 1.969-.554c1.15 0 2.039.367 2.664 1.101.63.735.945 1.774.945 3.117v.766h-5.523c.057.698.289 1.25.695 1.656.411.407.927.61 1.547.61.87 0 1.578-.352 2.125-1.055l1.023.976a3.433 3.433 0 0 1-1.36 1.18c-.562.276-1.195.414-1.898.414zm-.226-7.242c-.521 0-.943.182-1.266.547-.318.365-.52.872-.61 1.523h3.618v-.14c-.042-.636-.211-1.115-.508-1.438-.297-.328-.708-.492-1.234-.492z" fill="#262330"/><g filter="url(#k)"><path d="M61.707 179.293a1 1 0 0 0-1.414 0l-6.364 6.364a1 1 0 1 0 1.414 1.414L61 181.414l5.657 5.657a1 1 0 1 0 1.414-1.414l-6.364-6.364zM62 245v-65h-2v65h2z" fill="#262330"/></g><g filter="url(#l)"><path stroke="#262330" stroke-width="3" stroke-linejoin="round" d="M43 152h37v25H43z"/></g><g filter="url(#m)"><path stroke="#AF3E9D" stroke-width="3" stroke-linejoin="round" d="M88 151h95v26H88z"/></g><g filter="url(#n)"><path d="M136.707 179.293a.999.999 0 0 0-1.414 0l-6.364 6.364a.999.999 0 1 0 1.414 1.414l5.657-5.657 5.657 5.657a.999.999 0 1 0 1.414-1.414l-6.364-6.364zM137 245v-65h-2v65h2z" fill="#AF3E9D"/></g><path d="m121.164 261.523 2.891-8.898h2.172L122.133 264h-1.914l-4.078-11.375h2.164l2.859 8.898zM132.023 264c-.083-.161-.156-.424-.218-.789a2.956 2.956 0 0 1-2.219.945c-.849 0-1.542-.242-2.078-.726-.537-.485-.805-1.084-.805-1.797 0-.901.333-1.591 1-2.071.672-.484 1.63-.726 2.875-.726h1.164v-.555c0-.437-.122-.786-.367-1.047-.245-.265-.617-.398-1.117-.398-.432 0-.787.109-1.063.328a.994.994 0 0 0-.414.82h-1.898c0-.463.153-.895.461-1.296.307-.407.724-.724 1.25-.954a4.432 4.432 0 0 1 1.773-.343c.99 0 1.779.25 2.367.75.589.494.891 1.192.907 2.093v3.813c0 .76.106 1.367.32 1.82V264h-1.938zm-2.085-1.367a2.13 2.13 0 0 0 1.054-.274c.334-.182.584-.427.75-.734v-1.594h-1.023c-.703 0-1.232.123-1.586.367-.354.245-.531.592-.531 1.04 0 .364.119.656.359.874.245.214.57.321.977.321zm7.71 1.367h-1.898v-12h1.898v12zm7.196-.828c-.558.656-1.349.984-2.375.984-.917 0-1.612-.268-2.086-.804-.469-.537-.703-1.313-.703-2.329v-5.476h1.898V261c0 1.073.445 1.609 1.336 1.609.922 0 1.544-.33 1.867-.992v-6.07h1.899V264h-1.789l-.047-.828zm7.492.984c-1.203 0-2.18-.377-2.93-1.133-.745-.76-1.117-1.77-1.117-3.031v-.234c0-.844.162-1.597.484-2.258.329-.667.787-1.185 1.375-1.555a3.633 3.633 0 0 1 1.969-.554c1.151 0 2.039.367 2.664 1.101.63.735.946 1.774.946 3.117v.766h-5.524c.057.698.289 1.25.695 1.656.412.407.928.61 1.547.61.87 0 1.578-.352 2.125-1.055l1.024.976a3.436 3.436 0 0 1-1.36 1.18c-.562.276-1.195.414-1.898.414zm-.227-7.242c-.52 0-.942.182-1.265.547-.318.365-.521.872-.61 1.523h3.618v-.14c-.042-.636-.211-1.115-.508-1.438-.297-.328-.709-.492-1.235-.492z" fill="#AF3E9D"/><defs><filter id="a" x="213.086" y="209.086" width="61.976" height="61.976" filterUnits="userSpaceOnUse" color-interpolation-filters="sRGB"><feFlood flood-opacity="0" result="BackgroundImageFix"/><feColorMatrix in="SourceAlpha" values="0 0 0 0 0 0 0 0 0 0 0 0 0 0 0 0 0 0 127 0"/><feOffset dy="4"/><feGaussianBlur stdDeviation="2"/><feColorMatrix values="0 0 0 0 0 0 0 0 0 0 0 0 0 0 0 0 0 0 0.25 0"/><feBlend in2="BackgroundImageFix" result="effect1_dropShadow"/><feBlend in="SourceGraphic" in2="effect1_dropShadow" result="shape"/></filter><filter id="b" x=".5" y="64.5" width="222" height="154" filterUnits="userSpaceOnUse" color-interpolation-filters="sRGB"><feFlood flood-opacity="0" result="BackgroundImageFix"/><feColorMatrix in="SourceAlpha" values="0 0 0 0 0 0 0 0 0 0 0 0 0 0 0 0 0 0 127 0"/><feOffset dy="4"/><feGaussianBlur stdDeviation="2"/><feColorMatrix values="0 0 0 0 0 0 0 0 0 0 0 0 0 0 0 0 0 0 0.25 0"/><feBlend in2="BackgroundImageFix" result="effect1_dropShadow"/><feBlend in="SourceGraphic" in2="effect1_dropShadow" result="shape"/></filter><filter id="c" x="27.5" y="84.5" width="138" height="55" filterUnits="userSpaceOnUse" color-interpolation-filters="sRGB"><feFlood flood-opacity="0" result="BackgroundImageFix"/><feColorMatrix in="SourceAlpha" values="0 0 0 0 0 0 0 0 0 0 0 0 0 0 0 0 0 0 127 0"/><feOffset dy="4"/><feGaussianBlur stdDeviation="2"/><feColorMatrix values="0 0 0 0 0 0 0 0 0 0 0 0 0 0 0 0 0 0 0.25 0"/><feBlend in2="BackgroundImageFix" result="effect1_dropShadow"/><feBlend in="SourceGraphic" in2="effect1_dropShadow" result="shape"/></filter><filter id="d" x="101.611" y="23.478" width="22.928" height="81.542" filterUnits="userSpaceOnUse" color-interpolation-filters="sRGB"><feFlood flood-opacity="0" result="BackgroundImageFix"/><feColorMatrix in="SourceAlpha" values="0 0 0 0 0 0 0 0 0 0 0 0 0 0 0 0 0 0 127 0"/><feOffset dy="4"/><feGaussianBlur stdDeviation="2"/><feColorMatrix values="0 0 0 0 0 0 0 0 0 0 0 0 0 0 0 0 0 0 0.25 0"/><feBlend in2="BackgroundImageFix" result="effect1_dropShadow"/><feBlend in="SourceGraphic" in2="effect1_dropShadow" result="shape"/></filter><filter id="e" x="44.686" y="50.977" width="22.853" height="54.042" filterUnits="userSpaceOnUse" color-interpolation-filters="sRGB"><feFlood flood-opacity="0" result="BackgroundImageFix"/><feColorMatrix in="SourceAlpha" values="0 0 0 0 0 0 0 0 0 0 0 0 0 0 0 0 0 0 127 0"/><feOffset dy="4"/><feGaussianBlur stdDeviation="2"/><feColorMatrix values="0 0 0 0 0 0 0 0 0 0 0 0 0 0 0 0 0 0 0.25 0"/><feBlend in2="BackgroundImageFix" result="effect1_dropShadow"/><feBlend in="SourceGraphic" in2="effect1_dropShadow" result="shape"/></filter><filter id="f" x="36.5" y="98.5" width="40" height="30" filterUnits="userSpaceOnUse" color-interpolation-filters="sRGB"><feFlood flood-opacity="0" result="BackgroundImageFix"/><feColorMatrix in="SourceAlpha" values="0 0 0 0 0 0 0 0 0 0 0 0 0 0 0 0 0 0 127 0"/><feOffset dy="4"/><feGaussianBlur stdDeviation="2"/><feColorMatrix values="0 0 0 0 0 0 0 0 0 0 0 0 0 0 0 0 0 0 0.25 0"/><feBlend in2="BackgroundImageFix" result="effect1_dropShadow"/><feBlend in="SourceGraphic" in2="effect1_dropShadow" result="shape"/></filter><filter id="g" x="76.5" y="98.5" width="64" height="30" filterUnits="userSpaceOnUse" color-interpolation-filters="sRGB"><feFlood flood-opacity="0" result="BackgroundImageFix"/><feColorMatrix in="SourceAlpha" values="0 0 0 0 0 0 0 0 0 0 0 0 0 0 0 0 0 0 127 0"/><feOffset dy="4"/><feGaussianBlur stdDeviation="2"/><feColorMatrix values="0 0 0 0 0 0 0 0 0 0 0 0 0 0 0 0 0 0 0.25 0"/><feBlend in2="BackgroundImageFix" result="effect1_dropShadow"/><feBlend in="SourceGraphic" in2="effect1_dropShadow" result="shape"/></filter><filter id="h" x="163" y="101.636" width="105" height="22.728" filterUnits="userSpaceOnUse" color-interpolation-filters="sRGB"><feFlood flood-opacity="0" result="BackgroundImageFix"/><feColorMatrix in="SourceAlpha" values="0 0 0 0 0 0 0 0 0 0 0 0 0 0 0 0 0 0 127 0"/><feOffset dy="4"/><feGaussianBlur stdDeviation="2"/><feColorMatrix values="0 0 0 0 0 0 0 0 0 0 0 0 0 0 0 0 0 0 0.25 0"/><feBlend in2="BackgroundImageFix" result="effect1_dropShadow"/><feBlend in="SourceGraphic" in2="effect1_dropShadow" result="shape"/></filter><filter id="i" x="197" y="158.636" width="73" height="22.728" filterUnits="userSpaceOnUse" color-interpolation-filters="sRGB"><feFlood flood-opacity="0" result="BackgroundImageFix"/><feColorMatrix in="SourceAlpha" values="0 0 0 0 0 0 0 0 0 0 0 0 0 0 0 0 0 0 127 0"/><feOffset dy="4"/><feGaussianBlur stdDeviation="2"/><feColorMatrix values="0 0 0 0 0 0 0 0 0 0 0 0 0 0 0 0 0 0 0.25 0"/><feBlend in2="BackgroundImageFix" result="effect1_dropShadow"/><feBlend in="SourceGraphic" in2="effect1_dropShadow" result="shape"/></filter><filter id="j" x="29" y="141" width="172" height="59" filterUnits="userSpaceOnUse" color-interpolation-filters="sRGB"><feFlood flood-opacity="0" result="BackgroundImageFix"/><feColorMatrix in="SourceAlpha" values="0 0 0 0 0 0 0 0 0 0 0 0 0 0 0 0 0 0 127 0"/><feOffset dy="4"/><feGaussianBlur stdDeviation="2"/><feColorMatrix values="0 0 0 0 0 0 0 0 0 0 0 0 0 0 0 0 0 0 0.25 0"/><feBlend in2="BackgroundImageFix" result="effect1_dropShadow"/><feBlend in="SourceGraphic" in2="effect1_dropShadow" result="shape"/></filter><filter id="k" x="49.636" y="179" width="22.728" height="74" filterUnits="userSpaceOnUse" color-interpolation-filters="sRGB"><feFlood flood-opacity="0" result="BackgroundImageFix"/><feColorMatrix in="SourceAlpha" values="0 0 0 0 0 0 0 0 0 0 0 0 0 0 0 0 0 0 127 0"/><feOffset dy="4"/><feGaussianBlur stdDeviation="2"/><feColorMatrix values="0 0 0 0 0 0 0 0 0 0 0 0 0 0 0 0 0 0 0.25 0"/><feBlend in2="BackgroundImageFix" result="effect1_dropShadow"/><feBlend in="SourceGraphic" in2="effect1_dropShadow" result="shape"/></filter><filter id="l" x="37.5" y="150.5" width="48" height="36" filterUnits="userSpaceOnUse" color-interpolation-filters="sRGB"><feFlood flood-opacity="0" result="BackgroundImageFix"/><feColorMatrix in="SourceAlpha" values="0 0 0 0 0 0 0 0 0 0 0 0 0 0 0 0 0 0 127 0"/><feOffset dy="4"/><feGaussianBlur stdDeviation="2"/><feColorMatrix values="0 0 0 0 0 0 0 0 0 0 0 0 0 0 0 0 0 0 0.25 0"/><feBlend in2="BackgroundImageFix" result="effect1_dropShadow"/><feBlend in="SourceGraphic" in2="effect1_dropShadow" result="shape"/></filter><filter id="m" x="82.5" y="149.5" width="106" height="37" filterUnits="userSpaceOnUse" color-interpolation-filters="sRGB"><feFlood flood-opacity="0" result="BackgroundImageFix"/><feColorMatrix in="SourceAlpha" values="0 0 0 0 0 0 0 0 0 0 0 0 0 0 0 0 0 0 127 0"/><feOffset dy="4"/><feGaussianBlur stdDeviation="2"/><feColorMatrix values="0 0 0 0 0 0 0 0 0 0 0 0 0 0 0 0 0 0 0.25 0"/><feBlend in2="BackgroundImageFix" result="effect1_dropShadow"/><feBlend in="SourceGraphic" in2="effect1_dropShadow" result="shape"/></filter><filter id="n" x="124.636" y="179" width="22.728" height="74" filterUnits="userSpaceOnUse" color-interpolation-filters="sRGB"><feFlood flood-opacity="0" result="BackgroundImageFix"/><feColorMatrix in="SourceAlpha" values="0 0 0 0 0 0 0 0 0 0 0 0 0 0 0 0 0 0 127 0"/><feOffset dy="4"/><feGaussianBlur stdDeviation="2"/><feColorMatrix values="0 0 0 0 0 0 0 0 0 0 0 0 0 0 0 0 0 0 0.25 0"/><feBlend in2="BackgroundImageFix" result="effect1_dropShadow"/><feBlend in="SourceGraphic" in2="effect1_dropShadow" result="shape"/></filter></defs></svg>