<svg width="878.113" height="807.913" xmlns="http://www.w3.org/2000/svg"><defs><marker id="a" markerWidth="16" markerHeight="12" refX="16" refY="6" viewBox="0 0 16 12" orient="auto" markerUnits="userSpaceOnUse" stroke-dasharray="0,0"><path d="m0 2 14 4-14 5V2" fill="#323232" stroke="#323232" stroke-width="2"/></marker><marker id="b" markerWidth="16" markerHeight="12" refX="16" refY="6" viewBox="0 0 16 12" orient="auto" markerUnits="userSpaceOnUse" stroke-dasharray="0,0"><path d="m0 2 14 4-14 5V2" fill="#323232" stroke="#323232" stroke-width="2"/></marker><marker id="c" markerWidth="16" markerHeight="12" refX="16" refY="6" viewBox="0 0 16 12" orient="auto" markerUnits="userSpaceOnUse" stroke-dasharray="0,0"><path d="m0 2 14 4-14 5V2" fill="#323232" stroke="#323232" stroke-width="2"/></marker><marker id="d" markerWidth="16" markerHeight="12" refX="16" refY="6" viewBox="0 0 16 12" orient="auto" markerUnits="userSpaceOnUse" stroke-dasharray="0,0"><path d="m0 2 14 4-14 5V2" fill="#323232" stroke="#323232" stroke-width="2"/></marker><marker id="e" markerWidth="16" markerHeight="12" refX="16" refY="6" viewBox="0 0 16 12" orient="auto" markerUnits="userSpaceOnUse" stroke-dasharray="0,0"><path d="m0 2 14 4-14 5V2" fill="#323232" stroke="#323232" stroke-width="2"/></marker><marker id="f" markerWidth="16" markerHeight="12" refX="16" refY="6" viewBox="0 0 16 12" orient="auto" markerUnits="userSpaceOnUse" stroke-dasharray="0,0"><path d="m0 2 14 4-14 5V2" fill="#323232" stroke="#323232" stroke-width="2"/></marker><marker id="g" markerWidth="16" markerHeight="12" refX="16" refY="6" viewBox="0 0 16 12" orient="auto" markerUnits="userSpaceOnUse" stroke-dasharray="0,0"><path d="m0 2 14 4-14 5V2" fill="#323232" stroke="#323232" stroke-width="2"/></marker><marker id="h" markerWidth="16" markerHeight="12" refX="16" refY="6" viewBox="0 0 16 12" orient="auto" markerUnits="userSpaceOnUse" stroke-dasharray="0,0"><path d="m0 2 14 4-14 5V2" fill="#323232" stroke="#323232" stroke-width="2"/></marker><marker id="i" markerWidth="16" markerHeight="12" refX="16" refY="6" viewBox="0 0 16 12" orient="auto" markerUnits="userSpaceOnUse" stroke-dasharray="0,0"><path d="m0 2 14 4-14 5V2" fill="#323232" stroke="#323232" stroke-width="2"/></marker><marker id="j" markerWidth="16" markerHeight="12" refX="16" refY="6" viewBox="0 0 16 12" orient="auto" markerUnits="userSpaceOnUse" stroke-dasharray="0,0"><path d="m0 2 14 4-14 5V2" fill="#323232" stroke="#323232" stroke-width="2"/></marker><marker id="k" markerWidth="16" markerHeight="12" refX="16" refY="6" viewBox="0 0 16 12" orient="auto" markerUnits="userSpaceOnUse" stroke-dasharray="0,0"><path d="m0 2 14 4-14 5V2" fill="#323232" stroke="#323232" stroke-width="2"/></marker><marker id="l" markerWidth="16" markerHeight="12" refX="16" refY="6" viewBox="0 0 16 12" orient="auto" markerUnits="userSpaceOnUse" stroke-dasharray="0,0"><path d="m0 2 14 4-14 5V2" fill="#323232" stroke="#323232" stroke-width="2"/></marker><marker id="m" markerWidth="16" markerHeight="12" refX="16" refY="6" viewBox="0 0 16 12" orient="auto" markerUnits="userSpaceOnUse" stroke-dasharray="0,0"><path d="m0 2 14 4-14 5V2" fill="#323232" stroke="#323232" stroke-width="2"/></marker><marker id="n" markerWidth="16" markerHeight="12" refX="16" refY="6" viewBox="0 0 16 12" orient="auto" markerUnits="userSpaceOnUse" stroke-dasharray="0,0"><path d="m0 2 14 4-14 5V2" fill="#323232" stroke="#323232" stroke-width="2"/></marker><marker id="o" markerWidth="16" markerHeight="12" refX="16" refY="6" viewBox="0 0 16 12" orient="auto" markerUnits="userSpaceOnUse" stroke-dasharray="0,0"><path d="m0 2 14 4-14 5V2" fill="#323232" stroke="#323232" stroke-width="2"/></marker><marker id="p" markerWidth="16" markerHeight="12" refX="16" refY="6" viewBox="0 0 16 12" orient="auto" markerUnits="userSpaceOnUse" stroke-dasharray="0,0"><path d="m0 2 14 4-14 5V2" fill="#323232" stroke="#323232" stroke-width="2"/></marker><marker id="q" markerWidth="16" markerHeight="12" refX="16" refY="6" viewBox="0 0 16 12" orient="auto" markerUnits="userSpaceOnUse" stroke-dasharray="0,0"><path d="m0 2 14 4-14 5V2" fill="#323232" stroke="#323232" stroke-width="2"/></marker><marker id="r" markerWidth="16" markerHeight="12" refX="16" refY="6" viewBox="0 0 16 12" orient="auto" markerUnits="userSpaceOnUse" stroke-dasharray="0,0"><path d="m0 2 14 4-14 5V2" fill="#323232" stroke="#323232" stroke-width="2"/></marker><marker id="s" markerWidth="16" markerHeight="12" refX="16" refY="6" viewBox="0 0 16 12" orient="auto" markerUnits="userSpaceOnUse" stroke-dasharray="0,0"><path d="m0 2 14 4-14 5V2" fill="#323232" stroke="#323232" stroke-width="2"/></marker><marker id="t" markerWidth="16" markerHeight="12" refX="16" refY="6" viewBox="0 0 16 12" orient="auto" markerUnits="userSpaceOnUse" stroke-dasharray="0,0"><path d="m0 2 14 4-14 5V2" fill="#323232" stroke="#323232" stroke-width="2"/></marker><marker id="u" markerWidth="16" markerHeight="12" refX="16" refY="6" viewBox="0 0 16 12" orient="auto" markerUnits="userSpaceOnUse" stroke-dasharray="0,0"><path d="m0 2 14 4-14 5V2" fill="#323232" stroke="#323232" stroke-width="2"/></marker></defs><path d="M502.063 249.06h292.555v198.177" stroke="#323232" stroke-width="2" fill="none" marker-end="url(#a)"/><path fill="#fff" d="M786.563 339.737h16v16h-16z"/><text font-family="微软雅黑" text-anchor="middle" font-size="13" fill="#323232" font-weight="400" y="338.112"><tspan dy="16" x="794.563"><tspan>All</tspan></tspan></text><path d="M406.563 25.004h66c22.666 0 22.666 51 0 51h-66c-22.667 0-22.667-51 0-51z" stroke="rgba(50,50,50,1)" stroke-width="2" fill="#fff"/><text font-family="微软雅黑" text-anchor="middle" font-size="13" fill="#323232" font-weight="400" y="15.875" transform="translate(389.563 25.004)"><tspan dy="16" x="50"><tspan>提交代码</tspan></tspan></text><path d="M377.063 121.56h125v51h-125z" stroke="rgba(50,50,50,1)" stroke-width="2" fill="#fff"/><text font-family="微软雅黑" text-anchor="middle" font-size="13" fill="#323232" font-weight="400" y="15.875" transform="translate(377.063 121.56)"><tspan dy="16" x="62.5"><tspan>Github 私有仓库</tspan></tspan></text><path d="M439.563 76.004v45.556" stroke="#323232" stroke-width="2" fill="none" marker-end="url(#b)"/><path fill="#fff" d="M404.063 85.06h71v16h-71z"/><text font-family="微软雅黑" text-anchor="middle" font-size="13" fill="#323232" font-weight="400" y="83.435"><tspan dy="16" x="439.563"><tspan>SSH &amp; GPG</tspan></tspan></text><path d="M377.063 223.56h125v51h-125z" stroke="rgba(50,50,50,1)" stroke-width="2" fill="#fff"/><text font-family="微软雅黑" text-anchor="middle" font-size="13" fill="#323232" font-weight="400" y="15.875" transform="translate(377.063 223.56)"><tspan dy="16" x="62.5"><tspan>Github Action</tspan></tspan></text><path d="M439.563 172.56v51" stroke="#323232" stroke-width="2" fill="none" marker-end="url(#c)"/><path fill="#fff" d="M412.563 184.796h54v16h-54z"/><text font-family="微软雅黑" text-anchor="middle" font-size="13" fill="#323232" font-weight="400" y="183.171"><tspan dy="16" x="439.563"><tspan>on: push</tspan></tspan></text><path d="M381.063 324.237h117v51h-117z" stroke="rgba(50,50,50,1)" stroke-width="2" fill="#fff"/><text font-family="微软雅黑" text-anchor="middle" font-size="13" fill="#323232" font-weight="400" y="7.875" transform="translate(381.063 324.237)"><tspan dy="16" x="58.5"><tspan>部署博客</tspan></tspan><tspan dy="16" x="58.5"><tspan>CVM</tspan></tspan></text><path d="M439.563 274.56v49.677" stroke="#323232" stroke-width="2" fill="none" marker-end="url(#d)"/><path fill="#fff" d="M370.563 286.562h138v16h-138z"/><text font-family="微软雅黑" text-anchor="middle" font-size="13" fill="#323232" font-weight="400" y="284.937"><tspan dy="16" x="439.563"><tspan>self-hosted 自托管主机</tspan></tspan></text><path d="M306.063 447.237h125v51h-125z" stroke="rgba(50,50,50,1)" stroke-width="2" fill="#fff"/><text font-family="微软雅黑" text-anchor="middle" font-size="13" fill="#323232" font-weight="400" y="7.875" transform="translate(306.063 447.237)"><tspan dy="16" x="62.5"><tspan>Gitea</tspan></tspan><tspan dy="16" x="62.5"><tspan style="font-size:inherit">仓库</tspan></tspan></text><path d="M592.063 324.237h125v51h-125z" stroke="rgba(50,50,50,1)" stroke-width="2" fill="#fff"/><text font-family="微软雅黑" text-anchor="middle" font-size="13" fill="#323232" font-weight="400" y="7.875" transform="translate(592.063 324.237)"><tspan dy="16" x="62.5"><tspan>部署博客</tspan></tspan><tspan dy="16" x="62.5"><tspan>COS</tspan></tspan></text><path d="M156.063 324.237h135v51h-135z" stroke="rgba(50,50,50,1)" stroke-width="2" fill="#fff"/><text font-family="微软雅黑" text-anchor="middle" font-size="13" fill="#323232" font-weight="400" y="7.875" transform="translate(156.063 324.237)"><tspan dy="16" x="67.5"><tspan>部署博客</tspan></tspan><tspan dy="16" x="67.5"><tspan>同步文件</tspan></tspan></text><path d="M377.063 249.06h-153.5v75.177" stroke="#323232" stroke-width="2" fill="none" marker-end="url(#e)"/><path fill="#fff" d="M250.138 239.949h85v16h-85z"/><text font-family="微软雅黑" text-anchor="middle" font-size="13" fill="#323232" font-weight="400" y="238.324"><tspan dy="16" x="292.638"><tspan>ubuntu-latest</tspan></tspan></text><path d="M449.063 447.237h125v51h-125z" stroke="rgba(50,50,50,1)" stroke-width="2" fill="#fff"/><text font-family="微软雅黑" text-anchor="middle" font-size="13" fill="#323232" font-weight="400" y="15.875" transform="translate(449.063 447.237)"><tspan dy="16" x="62.5"><tspan>Nginx 站点</tspan></tspan></text><path d="M156.063 447.237h135v51h-135z" stroke="rgba(50,50,50,1)" stroke-width="2" fill="#fff"/><text font-family="微软雅黑" text-anchor="middle" font-size="13" fill="#323232" font-weight="400" y="7.875" transform="translate(156.063 447.237)"><tspan dy="16" x="67.5"><tspan>inkss-cdn</tspan></tspan><tspan dy="16" x="67.5"><tspan>仓库</tspan></tspan></text><path d="M223.563 375.237v72" stroke="#323232" stroke-width="2" fill="none" marker-end="url(#f)"/><path fill="#fff" d="M196.563 397.737h52v16h-52z"/><text font-family="微软雅黑" text-anchor="middle" font-size="13" fill="#323232" font-weight="400" y="396.112"><tspan dy="16" x="222.563"><tspan>静态文件</tspan></tspan></text><path d="M25.007 447.237h117v51h-117z" stroke="rgba(50,50,50,1)" stroke-width="2" fill="#fff"/><text font-family="微软雅黑" text-anchor="middle" font-size="13" fill="#323232" font-weight="400" y="7.875" transform="translate(25.007 447.237)"><tspan dy="16" x="58.5"><tspan>markdown</tspan></tspan><tspan dy="16" x="58.5"><tspan>仓库</tspan></tspan></text><path d="M156.063 349.737H83.507v97.5" stroke="#323232" stroke-width="2" fill="none" marker-end="url(#g)"/><path fill="#fff" d="M56.063 394.737h53v16h-53z"/><text font-family="微软雅黑" text-anchor="middle" font-size="13" fill="#323232" font-weight="400" y="393.112"><tspan dy="16" x="82.563"><tspan>MD 文件</tspan></tspan></text><path d="M406.563 731.915h66c22.666 0 22.666 51 0 51h-66c-22.667 0-22.667-51 0-51z" stroke="rgba(50,50,50,1)" stroke-width="2" fill="#fff"/><text font-family="微软雅黑" text-anchor="middle" font-size="13" fill="#323232" font-weight="400" y="15.875" transform="translate(389.563 731.915)"><tspan dy="16" x="50"><tspan>用户</tspan></tspan></text><path d="M392.563 638.693h94v51h-94z" stroke="rgba(50,50,50,1)" stroke-width="2" fill="#fff"/><text font-family="微软雅黑" text-anchor="middle" font-size="13" fill="#323232" font-weight="400" y="15.875" transform="translate(392.563 638.693)"><tspan dy="16" x="47"><tspan>域名访问</tspan></tspan></text><path d="M449.063 526.237h125v51h-125z" stroke="rgba(50,50,50,1)" stroke-width="2" fill="#fff"/><text font-family="微软雅黑" text-anchor="middle" font-size="13" fill="#323232" font-weight="400" y="15.875" transform="translate(449.063 526.237)"><tspan dy="16" x="62.5"><tspan>腾讯云 CDN</tspan></tspan></text><path d="M223.563 498.237v165.956h169" stroke="#323232" stroke-width="2" fill="none" marker-end="url(#h)"/><path fill="#fff" d="M175.563 573.737h94v48h-94z"/><text font-family="微软雅黑" text-anchor="middle" font-size="13" fill="#323232" font-weight="400" y="572.112"><tspan dy="16" x="222.563"><tspan>静态资源</tspan></tspan><tspan dy="16" x="222.563"><tspan>cdn.jsdelivr.net</tspan></tspan><tspan dy="16" x="222.563"><tspan>(fonts)</tspan></tspan></text><path d="M511.563 577.237v36.173h-72v25.283" stroke="#323232" stroke-width="2" fill="none" marker-end="url(#i)"/><path fill="#fff" d="M482.563 589.032h58v16h-58z"/><text font-family="微软雅黑" text-anchor="middle" font-size="13" fill="#323232" font-weight="400" y="587.407"><tspan dy="16" x="511.563"><tspan>DNS 境内</tspan></tspan></text><path d="M439.563 731.915v-42.222" stroke="#323232" stroke-width="2" fill="none" marker-end="url(#j)"/><path fill="#fff" d="M423.563 702.804h32v16h-32z"/><text font-family="微软雅黑" text-anchor="middle" font-size="13" fill="#323232" font-weight="400" y="701.179"><tspan dy="16" x="439.563"><tspan>https</tspan></tspan></text><path d="M291.063 349.737h90" stroke="#323232" stroke-width="2" fill="none" marker-end="url(#k)"/><path fill="#fff" d="M315.063 341.737h31v16h-31z"/><text font-family="微软雅黑" text-anchor="middle" font-size="13" fill="#323232" font-weight="400" y="340.112"><tspan dy="16" x="330.563"><tspan>need</tspan></tspan></text><path d="M592.063 349.737h-94" stroke="#323232" stroke-width="2" fill="none" marker-end="url(#l)"/><path fill="#fff" d="M536.063 341.737h31v16h-31z"/><text font-family="微软雅黑" text-anchor="middle" font-size="13" fill="#323232" font-weight="400" y="340.112"><tspan dy="16" x="551.563"><tspan>need</tspan></tspan></text><path d="M502.063 249.06h152.5v75.177" stroke="#323232" stroke-width="2" fill="none" marker-end="url(#m)"/><path fill="#fff" d="M536.479 241.06h85v16h-85z"/><text font-family="微软雅黑" text-anchor="middle" font-size="13" fill="#323232" font-weight="400" y="239.435"><tspan dy="16" x="578.979"><tspan>ubuntu-latest</tspan></tspan></text><path d="M592.063 447.237h125v51h-125z" stroke="rgba(50,50,50,1)" stroke-width="2" fill="#fff"/><text font-family="微软雅黑" text-anchor="middle" font-size="13" fill="#323232" font-weight="400" y="15.875" transform="translate(592.063 447.237)"><tspan dy="16" x="62.5"><tspan>腾讯云对象存储</tspan></tspan></text><path d="M654.563 375.237v72" stroke="#323232" stroke-width="2" fill="none" marker-end="url(#n)"/><path fill="#fff" d="M581.563 398.737h146v16h-146z"/><text font-family="微软雅黑" text-anchor="middle" font-size="13" fill="#323232" font-weight="400" y="397.112"><tspan dy="16" x="654.563"><tspan>hexo-deployer-cos-cdn</tspan></tspan></text><path d="M306.063 526.237h125v51h-125z" stroke="rgba(50,50,50,1)" stroke-width="2" fill="#fff"/><text font-family="微软雅黑" text-anchor="middle" font-size="13" fill="#323232" font-weight="400" y="7.875" transform="translate(306.063 526.237)"><tspan dy="16" x="62.5"><tspan>inkss.github.io</tspan></tspan><tspan dy="16" x="62.5"><tspan>仓库</tspan></tspan></text><path d="M439.563 375.237v18.5h72v53.5" stroke="#323232" stroke-width="2" fill="none" marker-end="url(#o)"/><path fill="#fff" d="M476.563 403.737h68v16h-68z"/><text font-family="微软雅黑" text-anchor="middle" font-size="13" fill="#323232" font-weight="400" y="402.112"><tspan dy="16" x="510.563"><tspan>ssh-deploy</tspan></tspan></text><path d="M368.563 577.237v36.173h71v25.283" stroke="#323232" stroke-width="2" fill="none" marker-end="url(#p)"/><path fill="#fff" d="M339.563 589.032h58v16h-58z"/><text font-family="微软雅黑" text-anchor="middle" font-size="13" fill="#323232" font-weight="400" y="587.407"><tspan dy="16" x="368.563"><tspan>DNS 境外</tspan></tspan></text><path d="M368.563 498.237v28" stroke="#323232" stroke-width="2" fill="none" marker-end="url(#q)"/><path d="M511.563 498.237v28" stroke="#323232" stroke-width="2" fill="none" marker-end="url(#r)"/><path d="M439.563 375.237v18.5h-71v53.5" stroke="#323232" stroke-width="2" fill="none" marker-end="url(#s)"/><path fill="#fff" d="M318.063 406.737h101v16h-101z"/><text font-family="微软雅黑" text-anchor="middle" font-size="13" fill="#323232" font-weight="400" y="405.112"><tspan dy="16" x="368.563"><tspan>hexo-deploy-git</tspan></tspan></text><path d="M736.118 447.237h117v51h-117z" stroke="rgba(50,50,50,1)" stroke-width="2" fill="#fff"/><text font-family="微软雅黑" text-anchor="middle" font-size="13" fill="#323232" font-weight="400" y="7.875" transform="translate(736.118 447.237)"><tspan dy="16" x="58.5"><tspan>Gulp </tspan><tspan style="font-size:inherit">静态资源</tspan></tspan><tspan dy="16" x="58.5"><tspan>链接替换</tspan></tspan></text><path d="M736.118 472.737h-19.055" stroke="#323232" stroke-width="2" fill="none" marker-end="url(#t)"/><path d="M654.563 498.237v165.956h-168" stroke="#323232" stroke-width="2" fill="none" marker-end="url(#u)"/><path fill="#fff" d="M612.563 573.737h84v48h-84z"/><text font-family="微软雅黑" text-anchor="middle" font-size="13" fill="#323232" font-weight="400" y="572.112"><tspan dy="16" x="654.563"><tspan>静态资源</tspan></tspan><tspan dy="16" x="654.563"><tspan>static.inkss.cn</tspan></tspan><tspan dy="16" x="654.563"><tspan>(img/js/css)</tspan></tspan></text></svg>