<?xml version="1.0" standalone="no"?>
<!DOCTYPE svg PUBLIC "-//W3C//DTD SVG 20010904//EN"
 "http://www.w3.org/TR/2001/REC-SVG-20010904/DTD/svg10.dtd">
<svg version="1.0" xmlns="http://www.w3.org/2000/svg"
 width="700.000000pt" height="700.000000pt" viewBox="0 0 700.000000 700.000000"
 preserveAspectRatio="xMidYMid meet">
<metadata>
Created by potrace 1.14, written by Peter Selinger 2001-2017
</metadata>
<g transform="translate(0.000000,700.000000) scale(0.100000,-0.100000)"
fill="#000000" stroke="none">
<path d="M3220 6494 c-615 -73 -1088 -261 -1565 -623 -55 -41 -179 -154 -276
-251 -398 -398 -652 -840 -789 -1375 -72 -280 -85 -398 -85 -745 1 -263 4
-324 22 -442 23 -147 72 -362 80 -354 3 2 16 63 29 134 138 750 592 1411 1335
1945 444 319 851 500 1307 581 38 7 45 24 -69 -171 -43 -75 -79 -137 -79 -140
0 -3 48 40 106 96 334 319 768 552 1136 609 56 9 57 8 62 -17 39 -200 -11
-518 -131 -830 -24 -63 -41 -116 -39 -118 7 -8 111 145 177 260 34 60 86 163
114 229 49 114 54 122 96 144 66 35 243 90 334 105 151 24 482 11 534 -21 29
-17 -75 -255 -178 -410 -55 -83 -208 -252 -262 -291 l-27 -19 -141 85 c-78 46
-141 81 -141 77 0 -4 25 -32 56 -62 161 -157 397 -450 509 -630 151 -244 226
-501 197 -675 -14 -83 -58 -178 -106 -224 l-35 -34 -5 34 c-3 19 -10 74 -16
124 -19 148 -76 225 -168 225 -72 0 -112 -42 -209 -220 -47 -85 -86 -156 -87
-157 -1 -2 -36 11 -77 29 -78 33 -176 46 -243 34 -52 -10 -106 -60 -106 -99 0
-47 37 -112 91 -161 l49 -44 -117 -77 c-217 -140 -451 -242 -702 -304 -158
-39 -227 -50 -390 -60 -230 -15 -435 9 -611 71 -185 66 -260 117 -391 270
-130 151 -175 191 -264 233 -193 91 -367 69 -517 -65 -69 -62 -161 -196 -189
-276 -59 -174 -94 -474 -79 -688 43 -605 373 -1105 950 -1438 172 -99 432
-180 735 -229 188 -30 585 -37 785 -15 560 64 1057 266 1515 615 119 90 404
371 499 491 281 354 487 781 584 1210 59 261 67 337 67 670 0 271 -3 321 -23
450 -84 521 -275 965 -601 1395 -114 151 -399 431 -561 552 -340 254 -684 419
-1082 518 -260 64 -369 77 -688 80 -157 2 -301 1 -320 -1z m1546 -3168 c83
-41 140 -100 150 -154 6 -31 3 -39 -22 -60 -25 -22 -34 -24 -96 -20 -154 12
-322 155 -278 238 28 53 134 51 246 -4z m746 -361 c19 -85 22 -133 23 -315 0
-239 0 -240 -81 -352 -57 -78 -302 -270 -374 -293 -10 -3 -30 -25 -43 -48 -33
-55 -117 -140 -170 -171 -23 -14 -68 -32 -101 -40 -54 -14 -67 -14 -180 5
-168 28 -387 36 -496 16 -125 -21 -180 -49 -249 -123 -49 -52 -58 -58 -51 -35
22 79 84 146 175 188 57 27 68 28 235 32 115 2 202 -2 255 -10 196 -33 333 0
379 90 l15 28 -162 6 c-168 7 -260 23 -327 57 -54 27 -63 45 -19 36 158 -33
217 -40 364 -40 121 0 176 4 225 17 131 35 242 103 276 168 18 36 18 94 -1
122 -8 12 -21 42 -29 65 l-16 43 42 -36 c48 -41 105 -60 140 -46 26 10 70 54
88 90 25 49 51 209 57 357 5 135 0 217 -23 344 -11 63 29 -66 48 -155z m-1222
-455 c140 -13 393 -70 377 -86 -2 -3 -16 0 -31 6 -56 21 -232 51 -354 60 -116
9 -265 4 -412 -14 -33 -4 -27 -2 20 10 54 12 167 26 265 33 11 0 72 -4 135 -9z
m-473 -46 c-3 -3 -12 -4 -19 -1 -8 3 -5 6 6 6 11 1 17 -2 13 -5z m478 -104
c-11 -5 -49 -9 -85 -9 -132 -2 -381 -49 -535 -100 -87 -29 -79 -18 12 17 169
65 336 94 573 99 39 1 49 -1 35 -7z m153 -7 c-10 -2 -28 -2 -40 0 -13 2 -5 4
17 4 22 1 32 -1 23 -4z m97 -100 c-317 -25 -564 -76 -698 -145 -22 -11 -41
-17 -44 -14 -8 8 106 61 192 89 149 49 323 75 495 74 52 0 77 -2 55 -4z"/>
<path d="M4643 3319 c-41 -15 -38 -80 5 -91 45 -12 84 31 63 70 -13 24 -39 32
-68 21z"/>
<path d="M4570 3267 c0 -20 43 -87 70 -111 39 -32 67 -40 131 -34 74 7 88 28
19 28 -71 0 -146 35 -188 86 -18 21 -32 35 -32 31z"/>
<path d="M4120 5546 c-243 -87 -442 -236 -624 -470 -67 -85 -166 -240 -166
-258 0 -5 34 37 76 93 182 245 443 466 717 608 104 54 103 64 -3 27z"/>
</g>
</svg>
