<svg id="SvgjsSvg1006" width="873" height="115" xmlns="http://www.w3.org/2000/svg" version="1.1" xmlns:xlink="http://www.w3.org/1999/xlink" xmlns:svgjs="http://svgjs.com/svgjs"><defs id="SvgjsDefs1007"><marker id="SvgjsMarker1050" markerWidth="14" markerHeight="10" refX="10" refY="5" viewBox="0 0 14 10" orient="auto" markerUnits="userSpaceOnUse" stroke-dasharray="0,0"><path id="SvgjsPath1051" d="M0,0 L14,5 L0,10 L0,0" fill="#323232" stroke="#323232" stroke-width="1"></path></marker><marker id="SvgjsMarker1054" markerWidth="14" markerHeight="10" refX="10" refY="5" viewBox="0 0 14 10" orient="auto" markerUnits="userSpaceOnUse" stroke-dasharray="0,0"><path id="SvgjsPath1055" d="M0,0 L14,5 L0,10 L0,0" fill="#323232" stroke="#323232" stroke-width="1"></path></marker><marker id="SvgjsMarker1058" markerWidth="14" markerHeight="10" refX="10" refY="5" viewBox="0 0 14 10" orient="auto" markerUnits="userSpaceOnUse" stroke-dasharray="0,0"><path id="SvgjsPath1059" d="M0,0 L14,5 L0,10 L0,0" fill="#323232" stroke="#323232" stroke-width="1"></path></marker><marker id="SvgjsMarker1062" markerWidth="14" markerHeight="10" refX="10" refY="5" viewBox="0 0 14 10" orient="auto" markerUnits="userSpaceOnUse" stroke-dasharray="0,0"><path id="SvgjsPath1063" d="M0,0 L14,5 L0,10 L0,0" fill="#323232" stroke="#323232" stroke-width="1"></path></marker></defs><g id="SvgjsG1008" transform="translate(25,25)"><path id="SvgjsPath1009" d="M 0 4Q 0 0 4 0L 126 0Q 130 0 130 4L 130 61Q 130 65 126 65L 4 65Q 0 65 0 61Z" stroke="rgba(50,50,50,1)" stroke-width="2" fill-opacity="1" fill="#ffffff"></path><g id="SvgjsG1010"><text id="SvgjsText1011" font-family="微软雅黑" text-anchor="middle" font-size="13px" width="110px" fill="#323232" font-weight="400" align="middle" lineHeight="125%" anchor="middle" family="微软雅黑" size="13px" weight="400" font-style="" opacity="1" y="14.375" transform="rotate(0)"><tspan id="SvgjsTspan1012" dy="16" x="65"><tspan id="SvgjsTspan1013" style="text-decoration:;">编译部署</tspan></tspan><tspan id="SvgjsTspan1014" dy="16" x="65"><tspan id="SvgjsTspan1015" style="text-decoration:;">ModSecurity</tspan></tspan></text></g></g><g id="SvgjsG1016" transform="translate(197,25)"><path id="SvgjsPath1017" d="M 0 4Q 0 0 4 0L 126 0Q 130 0 130 4L 130 61Q 130 65 126 65L 4 65Q 0 65 0 61Z" stroke="rgba(50,50,50,1)" stroke-width="2" fill-opacity="1" fill="#ffffff"></path><g id="SvgjsG1018"><text id="SvgjsText1019" font-family="微软雅黑" text-anchor="middle" font-size="13px" width="110px" fill="#323232" font-weight="400" align="middle" lineHeight="125%" anchor="middle" family="微软雅黑" size="13px" weight="400" font-style="" opacity="1" y="6.375" transform="rotate(0)"><tspan id="SvgjsTspan1020" dy="16" x="65"><tspan id="SvgjsTspan1021" style="text-decoration:;">下载连接件</tspan></tspan><tspan id="SvgjsTspan1022" dy="16" x="65"><tspan id="SvgjsTspan1023" style="text-decoration:;">ModSecurity-</tspan></tspan><tspan id="SvgjsTspan1024" dy="16" x="65"><tspan id="SvgjsTspan1025" style="text-decoration:;">nginx</tspan></tspan></text></g></g><g id="SvgjsG1026" transform="translate(369,25)"><path id="SvgjsPath1027" d="M 0 4Q 0 0 4 0L 126 0Q 130 0 130 4L 130 61Q 130 65 126 65L 4 65Q 0 65 0 61Z" stroke="rgba(50,50,50,1)" stroke-width="2" fill-opacity="1" fill="#ffffff"></path><g id="SvgjsG1028"><text id="SvgjsText1029" font-family="微软雅黑" text-anchor="middle" font-size="13px" width="110px" fill="#323232" font-weight="400" align="middle" lineHeight="125%" anchor="middle" family="微软雅黑" size="13px" weight="400" font-style="" opacity="1" y="14.375" transform="rotate(0)"><tspan id="SvgjsTspan1030" dy="16" x="65"><tspan id="SvgjsTspan1031" style="text-decoration:;">编译 Nginx</tspan></tspan><tspan id="SvgjsTspan1032" dy="16" x="65"><tspan id="SvgjsTspan1033" style="text-decoration:;">添加动态模块</tspan></tspan></text></g></g><g id="SvgjsG1034" transform="translate(541,25)"><path id="SvgjsPath1035" d="M 0 4Q 0 0 4 0L 126 0Q 130 0 130 4L 130 61Q 130 65 126 65L 4 65Q 0 65 0 61Z" stroke="rgba(50,50,50,1)" stroke-width="2" fill-opacity="1" fill="#ffffff"></path><g id="SvgjsG1036"><text id="SvgjsText1037" font-family="微软雅黑" text-anchor="middle" font-size="13px" width="110px" fill="#323232" font-weight="400" align="middle" lineHeight="125%" anchor="middle" family="微软雅黑" size="13px" weight="400" font-style="" opacity="1" y="14.375" transform="rotate(0)"><tspan id="SvgjsTspan1038" dy="16" x="65"><tspan id="SvgjsTspan1039" style="text-decoration:;">下载规则集</tspan></tspan><tspan id="SvgjsTspan1040" dy="16" x="65"><tspan id="SvgjsTspan1041" style="text-decoration:;">coreruleset</tspan></tspan></text></g></g><g id="SvgjsG1042" transform="translate(713,25)"><path id="SvgjsPath1043" d="M 0 4Q 0 0 4 0L 131 0Q 135 0 135 4L 135 61Q 135 65 131 65L 4 65Q 0 65 0 61Z" stroke="rgba(50,50,50,1)" stroke-width="2" fill-opacity="1" fill="#ffffff"></path><g id="SvgjsG1044"><text id="SvgjsText1045" font-family="微软雅黑" text-anchor="middle" font-size="13px" width="115px" fill="#323232" font-weight="400" align="middle" lineHeight="125%" anchor="middle" family="微软雅黑" size="13px" weight="400" font-style="" opacity="1" y="22.875" transform="rotate(0)"><tspan id="SvgjsTspan1046" dy="16" x="67.5"><tspan id="SvgjsTspan1047" style="text-decoration:;">整合配置文件</tspan></tspan></text></g></g><g id="SvgjsG1048"><path id="SvgjsPath1049" d="M156 57.5L176 57.5L176 57.5L193.39999999999998 57.5" stroke="#323232" stroke-width="2" fill="none" marker-end="url(#SvgjsMarker1050)"></path></g><g id="SvgjsG1052"><path id="SvgjsPath1053" d="M328 57.5L348 57.5L348 57.5L365.4 57.5" stroke="#323232" stroke-width="2" fill="none" marker-end="url(#SvgjsMarker1054)"></path></g><g id="SvgjsG1056"><path id="SvgjsPath1057" d="M500 57.5L520 57.5L520 57.5L537.4 57.5" stroke="#323232" stroke-width="2" fill="none" marker-end="url(#SvgjsMarker1058)"></path></g><g id="SvgjsG1060"><path id="SvgjsPath1061" d="M672 57.5L692 57.5L692 57.5L709.4 57.5" stroke="#323232" stroke-width="2" fill="none" marker-end="url(#SvgjsMarker1062)"></path></g></svg>