<svg width="873" height="115" xmlns="http://www.w3.org/2000/svg"><defs><marker id="a" markerWidth="14" markerHeight="10" refX="10" refY="5" viewBox="0 0 14 10" orient="auto" markerUnits="userSpaceOnUse" stroke-dasharray="0,0"><path d="m0 0 14 5-14 5V0" fill="#323232" stroke="#323232"/></marker><marker id="b" markerWidth="14" markerHeight="10" refX="10" refY="5" viewBox="0 0 14 10" orient="auto" markerUnits="userSpaceOnUse" stroke-dasharray="0,0"><path d="m0 0 14 5-14 5V0" fill="#323232" stroke="#323232"/></marker><marker id="c" markerWidth="14" markerHeight="10" refX="10" refY="5" viewBox="0 0 14 10" orient="auto" markerUnits="userSpaceOnUse" stroke-dasharray="0,0"><path d="m0 0 14 5-14 5V0" fill="#323232" stroke="#323232"/></marker><marker id="d" markerWidth="14" markerHeight="10" refX="10" refY="5" viewBox="0 0 14 10" orient="auto" markerUnits="userSpaceOnUse" stroke-dasharray="0,0"><path d="m0 0 14 5-14 5V0" fill="#323232" stroke="#323232"/></marker></defs><path d="M25 29q0-4 4-4h122q4 0 4 4v57q0 4-4 4H29q-4 0-4-4z" stroke="rgba(50,50,50,1)" stroke-width="2" fill="#fff"/><text font-family="微软雅黑" text-anchor="middle" font-size="13" fill="#323232" font-weight="400" y="14.375" transform="translate(25 25)"><tspan dy="16" x="65"><tspan>编译部署</tspan></tspan><tspan dy="16" x="65"><tspan>ModSecurity</tspan></tspan></text><path d="M197 29q0-4 4-4h122q4 0 4 4v57q0 4-4 4H201q-4 0-4-4z" stroke="rgba(50,50,50,1)" stroke-width="2" fill="#fff"/><text font-family="微软雅黑" text-anchor="middle" font-size="13" fill="#323232" font-weight="400" y="6.375" transform="translate(197 25)"><tspan dy="16" x="65"><tspan>下载连接件</tspan></tspan><tspan dy="16" x="65"><tspan>ModSecurity-</tspan></tspan><tspan dy="16" x="65"><tspan>nginx</tspan></tspan></text><path d="M369 29q0-4 4-4h122q4 0 4 4v57q0 4-4 4H373q-4 0-4-4z" stroke="rgba(50,50,50,1)" stroke-width="2" fill="#fff"/><text font-family="微软雅黑" text-anchor="middle" font-size="13" fill="#323232" font-weight="400" y="14.375" transform="translate(369 25)"><tspan dy="16" x="65"><tspan>编译 Nginx</tspan></tspan><tspan dy="16" x="65"><tspan>添加动态模块</tspan></tspan></text><path d="M541 29q0-4 4-4h122q4 0 4 4v57q0 4-4 4H545q-4 0-4-4z" stroke="rgba(50,50,50,1)" stroke-width="2" fill="#fff"/><text font-family="微软雅黑" text-anchor="middle" font-size="13" fill="#323232" font-weight="400" y="14.375" transform="translate(541 25)"><tspan dy="16" x="65"><tspan>下载规则集</tspan></tspan><tspan dy="16" x="65"><tspan>coreruleset</tspan></tspan></text><path d="M713 29q0-4 4-4h127q4 0 4 4v57q0 4-4 4H717q-4 0-4-4z" stroke="rgba(50,50,50,1)" stroke-width="2" fill="#fff"/><text font-family="微软雅黑" text-anchor="middle" font-size="13" fill="#323232" font-weight="400" y="22.875" transform="translate(713 25)"><tspan dy="16" x="67.5"><tspan>整合配置文件</tspan></tspan></text><path d="M156 57.5h37.4" stroke="#323232" stroke-width="2" fill="none" marker-end="url(#a)"/><path d="M328 57.5h37.4" stroke="#323232" stroke-width="2" fill="none" marker-end="url(#b)"/><path d="M500 57.5h37.4" stroke="#323232" stroke-width="2" fill="none" marker-end="url(#c)"/><path d="M672 57.5h37.4" stroke="#323232" stroke-width="2" fill="none" marker-end="url(#d)"/></svg>